<svg width="49" height="37" viewBox="0 0 49 37" fill="none" xmlns="http://www.w3.org/2000/svg">
<path d="M34.7345 32.3626C27.8429 32.3626 20.9843 32.3626 14.073 32.3626C14.073 32.7198 14.0533 33.0639 14.073 33.4145C14.1782 35.2802 12.5343 37.0665 10.4629 36.9871C9.41072 36.9474 8.35857 36.9805 7.30643 36.9871C5.7611 36.9871 4.49853 36.1469 3.9593 34.6914C3.80806 34.2878 3.74888 33.8313 3.74888 33.4013C3.73572 28.6709 3.7423 23.9404 3.7423 19.21C3.7423 18.9917 3.7423 18.7734 3.7423 18.555C3.3609 18.469 2.99265 18.4227 2.64413 18.3102C1.1251 17.8074 0.15844 16.2725 0.322837 14.6516C0.480659 13.0969 1.78926 11.7472 3.34775 11.5884C3.81463 11.5421 4.2881 11.5553 4.76156 11.5752C4.99172 11.5818 5.07721 11.4958 5.16269 11.2973C6.13592 8.98174 7.12231 6.66615 8.10212 4.35056C8.54928 3.30523 9.02931 2.28638 9.90391 1.51231C11.0021 0.546376 12.2647 0.0104827 13.7311 0.0104827C20.8133 0.00386676 27.889 -0.00936517 34.9712 0.0104827C37.4503 0.0170987 39.2981 1.17489 40.3306 3.46402C41.5011 6.06409 42.5861 8.71048 43.704 11.337C43.7829 11.5223 43.8684 11.5752 44.0657 11.5752C44.5983 11.5752 45.1441 11.5487 45.6702 11.6347C47.3733 11.906 48.5833 13.4012 48.5438 15.1214C48.4978 16.8217 47.1892 18.2639 45.4926 18.469C45.3743 18.4823 45.2559 18.5021 45.1046 18.522C45.1046 18.6609 45.1046 18.8064 45.1046 18.9454C45.1046 23.7552 45.1046 28.5584 45.1046 33.3682C45.1046 35.4655 43.6119 36.9739 41.5339 36.9739C40.5015 36.9739 39.4757 36.9805 38.4433 36.9805C36.2469 36.9805 34.7871 35.525 34.7542 33.3087C34.7345 33.0109 34.7345 32.7 34.7345 32.3626ZM6.05701 16.1931C6.05701 20.8376 6.05701 25.4224 6.05701 30.0139C18.3145 30.0139 30.5456 30.0139 42.8097 30.0139C42.8097 25.396 42.8097 20.8045 42.8097 16.1998C43.2437 16.1998 43.6514 16.2064 44.0525 16.1998C44.4471 16.1931 44.8416 16.2196 45.2296 16.1601C45.9003 16.0674 46.2752 15.5448 46.2094 14.8699C46.1568 14.3274 45.6373 13.8908 45.0323 13.8842C44.6904 13.8842 44.3484 13.9106 44.0131 13.8776C43.4212 13.8246 42.9083 13.9437 42.4348 14.3407C42.1192 14.6053 41.7378 14.7839 41.3893 15.0023C40.1464 15.7962 38.7786 16.1931 37.3122 16.1931C28.757 16.2064 20.1952 16.2064 11.6399 16.1799C10.8443 16.1799 10.0289 16.0344 9.2529 15.8293C7.99032 15.4985 6.93161 14.7244 5.85316 14.0099C5.76767 13.9503 5.66246 13.8908 5.56382 13.8908C4.93911 13.8776 4.3144 13.8643 3.68969 13.8908C2.87428 13.9239 2.38767 14.7112 2.68358 15.472C2.86113 15.9285 3.26884 16.1865 3.86724 16.1931C4.59059 16.1931 5.30079 16.1931 6.05701 16.1931ZM7.31301 12.1442C7.65495 12.3757 8.01005 12.5874 8.3257 12.8388C9.07535 13.4409 9.93679 13.7915 10.8837 13.8246C12.3173 13.8776 13.7508 13.8709 15.1843 13.8776C18.8011 13.8842 22.4113 13.8842 26.028 13.8908C29.796 13.8908 33.564 13.8974 37.3319 13.8908C38.2526 13.8908 39.1403 13.7122 39.9426 13.2424C40.3766 12.9844 40.758 12.6536 41.192 12.3956C41.4813 12.2236 41.5076 12.0648 41.3761 11.7671C40.3963 9.47793 39.4099 7.18881 38.463 4.88645C37.7331 3.11337 36.4771 2.29961 34.6687 2.31946C31.6372 2.35254 28.5992 2.3393 25.5677 2.3393C21.9641 2.3393 18.3605 2.33269 14.7569 2.33269C14.2966 2.33269 13.8363 2.31284 13.3826 2.36577C11.9424 2.55101 11.0218 3.41109 10.4694 4.71444C9.81842 6.24934 9.16083 7.78425 8.50982 9.31915C8.10212 10.252 7.71414 11.1915 7.31301 12.1442ZM6.04386 32.3758C6.04386 32.7794 6.03729 33.1499 6.04386 33.5204C6.05701 34.1687 6.55678 34.6583 7.20122 34.6649C8.352 34.6715 9.50278 34.6649 10.6536 34.6649C11.1796 34.6649 11.6597 34.3407 11.732 33.8313C11.7978 33.3616 11.7452 32.872 11.7452 32.3758C9.85788 32.3758 7.97717 32.3758 6.04386 32.3758ZM42.7571 32.3758C40.8566 32.3758 38.9759 32.3758 37.0623 32.3758C37.0623 32.7728 37.0558 33.1565 37.0623 33.5402C37.0755 34.1555 37.5161 34.6517 38.1276 34.6583C39.331 34.6782 40.541 34.6715 41.7444 34.6583C42.2376 34.6517 42.6913 34.2613 42.7439 33.7718C42.7899 33.3153 42.7571 32.8521 42.7571 32.3758Z" fill="#333333"/>
<path d="M12.3564 27.731C10.0877 27.6979 8.31224 25.8917 8.33855 23.6357C8.36485 21.4061 10.2127 19.6132 12.4616 19.6396C14.6119 19.6661 16.4072 21.5516 16.3677 23.7415C16.3348 25.9711 14.533 27.764 12.3564 27.731ZM12.2972 25.422C13.3165 25.4551 14.0464 24.7604 14.0793 23.7217C14.1056 22.7756 13.402 22.0015 12.4879 21.9618C11.4292 21.9221 10.6664 22.6102 10.6401 23.6291C10.6204 24.6612 11.2977 25.3889 12.2972 25.422Z" fill="#333333"/>
<path d="M36.4702 27.7442C34.2607 27.7508 32.4721 25.9381 32.4589 23.6688C32.4458 21.4855 34.287 19.6463 36.4834 19.6396C38.6403 19.6396 40.4947 21.4921 40.4947 23.6555C40.5012 25.9182 38.706 27.7376 36.4702 27.7442ZM34.7671 23.7085C34.7605 24.7207 35.4707 25.422 36.4834 25.422C37.4435 25.4154 38.18 24.7075 38.1865 23.7812C38.1931 22.7095 37.5026 21.9685 36.49 21.9619C35.4707 21.9619 34.7736 22.6698 34.7671 23.7085Z" fill="#333333"/>
</svg>
