<svg width="17" height="19" viewBox="0 0 17 19" fill="none" xmlns="http://www.w3.org/2000/svg">
<path d="M1.3375 3.49747C0.85 3.49747 0.45 3.49747 0 3.49747C0 3.11295 0 2.78497 0 2.40045C1.7375 2.40045 3.475 2.40045 5.275 2.40045C5.2875 2.16295 5.3125 1.98199 5.3125 1.80104C5.35 0.760565 6.0625 0.0706845 7.2125 0.0254464C8.0625 -0.00848214 8.925 -0.00848214 9.775 0.0254464C10.925 0.059375 11.6625 0.760565 11.7 1.78973C11.7 1.95938 11.7125 2.12902 11.725 2.35521C13.4875 2.35521 15.225 2.35521 17 2.35521C17 2.73973 17 3.06771 17 3.47485C16.6125 3.47485 16.1875 3.47485 15.7 3.47485C15.6125 4.33437 15.5125 5.13735 15.45 5.94033C15.225 8.62068 15.025 11.301 14.7875 13.9814C14.6875 15.1463 14.6 16.3112 14.425 17.4647C14.2875 18.426 13.525 18.9915 12.45 18.9915C9.8 19.0028 7.1625 19.0028 4.5125 18.9915C3.5125 18.9915 2.7 18.3808 2.575 17.476C2.4 16.232 2.3125 14.9653 2.2 13.71C2 11.4594 1.8 9.20878 1.6125 6.95818C1.525 5.82723 1.4375 4.68497 1.3375 3.49747ZM2.6125 3.5314C2.65 4.1308 2.675 4.66235 2.725 5.18259C2.9625 7.91949 3.2 10.6564 3.4375 13.3933C3.55 14.626 3.6625 15.8701 3.775 17.1028C3.825 17.6457 4.1625 17.8945 4.7625 17.8832C7.2625 17.8719 9.7625 17.8719 12.2625 17.8832C12.8625 17.8832 13.2 17.6683 13.25 17.1028C13.4 15.3612 13.5625 13.6195 13.7125 11.8778C13.825 10.5999 13.95 9.33318 14.05 8.05521C14.175 6.56235 14.2875 5.06949 14.4125 3.5314C10.4625 3.5314 6.5625 3.5314 2.6125 3.5314ZM10.5 2.35521C10.6875 1.37128 10.4625 1.11116 9.4375 1.09985C8.8125 1.09985 8.1875 1.09985 7.575 1.09985C6.55 1.09985 6.325 1.35997 6.5125 2.35521C7.8375 2.35521 9.175 2.35521 10.5 2.35521Z" fill="#B3B3B4"/>
<path d="M7.91211 6.00818C8.32461 6.00818 8.67461 6.00818 9.07461 6.00818C9.07461 9.15223 9.07461 12.2737 9.07461 15.429C8.67461 15.429 8.31211 15.429 7.91211 15.429C7.91211 12.285 7.91211 9.17485 7.91211 6.00818Z" fill="#B3B3B4"/>
<path d="M5.25 15.4177C5.25 12.2737 5.25 9.17487 5.25 6.03082C5.625 6.03082 5.9875 6.03082 6.4125 6.03082C6.4125 9.14094 6.4125 12.2624 6.4125 15.4177C6.0375 15.4177 5.675 15.4177 5.25 15.4177Z" fill="#B3B3B4"/>
<path d="M11.7371 15.429C11.3621 15.429 11.0121 15.429 10.5996 15.429C10.5996 12.3189 10.5996 9.19749 10.5996 6.03082C10.9621 6.03082 11.3246 6.03082 11.7371 6.03082C11.7371 9.12963 11.7371 12.2398 11.7371 15.429Z" fill="#B3B3B4"/>
</svg>
