<svg width="26" height="15" viewBox="0 0 26 15" fill="none" xmlns="http://www.w3.org/2000/svg">
<path d="M16.9553 12.439C15.8786 12.8787 14.7736 13.1381 13.6289 13.217C10.6424 13.4256 7.93932 12.5687 5.40622 11.0804C3.46814 9.94167 1.73974 8.53233 0.232343 6.86931C0.16434 6.79603 0.102004 6.71147 0 6.58744C0.561022 6.02935 1.09371 5.45997 1.66607 4.9357C3.63248 3.14302 5.8199 1.68858 8.34167 0.775331C11.7475 -0.45925 15.0739 -0.18302 18.3154 1.3447C20.9108 2.56801 23.1379 4.27613 25.059 6.39014C25.1213 6.45779 25.178 6.53107 25.2687 6.64382C24.821 7.11736 24.3903 7.60217 23.9256 8.05316C22.8149 9.13553 21.5739 10.0544 20.2421 10.8549C20.0891 10.9451 19.9815 10.9564 19.8455 10.838C19.7208 10.7253 19.5791 10.6238 19.4318 10.5392C19.3014 10.4603 19.1484 10.4152 18.9671 10.3363C20.7805 9.34975 22.3729 8.1208 23.8123 6.60999C23.3363 6.17592 22.8772 5.73057 22.3956 5.3134C20.6955 3.85333 18.8424 2.64693 16.74 1.84079C13.9009 0.752781 11.0788 0.79788 8.268 1.94226C5.66123 3.00209 3.46247 4.63692 1.47339 6.60436C1.51306 6.66073 1.54139 6.70583 1.58106 6.74529C3.62114 8.75783 5.89357 10.4208 8.60234 11.4356C10.8691 12.2812 13.1869 12.4898 15.5443 11.8189C15.6066 11.802 15.669 11.7794 15.7313 11.7569C16.4963 11.5089 16.7173 11.6272 16.9553 12.439Z" fill="white"/>
<path d="M16.9213 9.62015C17.2783 9.87946 17.6183 10.1331 17.964 10.3756C18.0264 10.4207 18.117 10.4488 18.1964 10.4432C18.525 10.4319 18.797 10.5447 19.0577 10.7363C20.0268 11.4523 21.0015 12.1626 21.9705 12.8785C22.4295 13.2224 22.5655 13.7749 22.3445 14.2879C22.0555 14.9474 21.2225 15.218 20.6331 14.8009C19.5847 14.0624 18.5534 13.3013 17.539 12.5234C17.352 12.3825 17.2613 12.1175 17.1253 11.9089C17.046 11.7849 16.9836 11.627 16.876 11.5368C16.5416 11.2663 16.1846 11.0238 15.8219 10.7589C14.4675 11.7342 12.9828 12.0837 11.3508 11.6947C10.0984 11.3959 9.09533 10.7082 8.33597 9.68216C6.79457 7.5907 7.04392 4.68182 8.91399 2.86096C10.7614 1.057 13.6685 0.865333 15.7369 2.39869C17.794 3.93205 18.6554 6.97059 16.9213 9.62015ZM12.5805 2.42688C10.2344 2.43252 8.35297 4.33794 8.37564 6.68872C8.3983 8.9493 10.3137 10.804 12.6258 10.7927C15.0909 10.7814 16.842 8.67871 16.8023 6.53651C16.757 4.29285 14.8699 2.41561 12.5805 2.42688Z" fill="white"/>
<path d="M13.5326 3.86447C12.8866 4.4733 12.8016 5.17233 13.2889 5.70788C13.816 6.29417 14.4903 6.24907 15.278 5.56695C15.788 6.67187 15.3347 8.14322 14.2466 8.89863C13.1133 9.68786 11.5662 9.5582 10.5802 8.59421C9.58845 7.62458 9.43544 6.09686 10.2231 4.92993C10.9372 3.88138 12.4219 3.39093 13.5326 3.86447Z" fill="white"/>
</svg>
