<svg width="20" height="18" viewBox="0 0 20 18" fill="none" xmlns="http://www.w3.org/2000/svg">
<path d="M19.2668 5.92938C19.2449 6.09501 19.227 6.26064 19.1992 6.42429C19.088 7.08682 18.8516 7.70793 18.5575 8.30932C18.0549 9.33268 17.4013 10.2594 16.6762 11.1369C15.7603 12.245 14.7372 13.2467 13.6605 14.1971C12.8737 14.8892 12.0632 15.5537 11.2248 16.1866C10.8931 16.437 10.5553 16.6796 10.2216 16.928C10.16 16.9753 10.1183 16.9773 10.0507 16.93C8.78324 16.023 7.56742 15.0528 6.40324 14.0177C5.28675 13.0219 4.23383 11.965 3.30805 10.7879C2.6028 9.89267 1.97502 8.95016 1.52206 7.90314C1.25188 7.27808 1.05321 6.6333 1.01149 5.95304C0.934015 4.64771 1.24393 3.45084 2.07236 2.41565C2.84914 1.44355 3.86034 0.84413 5.08809 0.613431C5.27284 0.577939 5.46158 0.570052 5.64832 0.548362C5.67812 0.544418 5.70593 0.536531 5.73375 0.532588C5.89864 0.532588 6.06551 0.532588 6.23041 0.532588C6.26219 0.538503 6.29398 0.548362 6.32576 0.550334C6.79064 0.579911 7.24161 0.670613 7.67867 0.830328C8.39187 1.08272 9.00773 1.48299 9.53817 2.01537C9.73683 2.2165 9.94742 2.40579 10.164 2.60888C10.2156 2.55367 10.2832 2.48269 10.3527 2.4117C10.6904 2.06072 11.0262 1.70777 11.4314 1.42778C12.0433 1.00385 12.7128 0.715964 13.4538 0.603572C13.6485 0.573995 13.8452 0.552306 14.0419 0.526672C14.2068 0.526672 14.3737 0.526672 14.5385 0.526672C14.5664 0.532588 14.5962 0.540475 14.624 0.544418C14.8107 0.566108 14.9994 0.573995 15.1842 0.609488C16.4457 0.848074 17.4708 1.47313 18.2516 2.48466C18.7482 3.12746 19.0661 3.85308 19.1913 4.6556C19.2211 4.84883 19.2409 5.04404 19.2668 5.23925C19.2668 5.46995 19.2668 5.69868 19.2668 5.92938ZM10.1063 3.76632C10.1183 3.77421 10.1302 3.78407 10.1441 3.79196C10.0905 3.74463 10.0348 3.69731 9.98318 3.64604C9.55406 3.22014 9.14481 2.77451 8.6998 2.3703C8.01242 1.74524 7.18201 1.42581 6.25822 1.36074C5.56488 1.31144 4.89538 1.43567 4.26164 1.72749C3.27031 2.18495 2.56505 2.91648 2.14388 3.91618C1.98694 4.29082 1.88164 4.68123 1.86575 5.08742C1.84986 5.45417 1.8439 5.8229 1.88164 6.18768C1.9333 6.68851 2.10812 7.16174 2.31275 7.62314C2.70213 8.50256 3.22263 9.30311 3.80471 10.0662C4.62719 11.1428 5.55892 12.1168 6.55622 13.0337C7.48398 13.8875 8.45147 14.692 9.45473 15.4571C9.6812 15.6306 9.91166 15.8002 10.152 15.9816C10.752 15.5123 11.35 15.0509 11.938 14.5776C12.7208 13.9506 13.4717 13.2861 14.1949 12.5921C14.8266 11.9867 15.4266 11.3538 15.9848 10.6814C16.8093 9.68366 17.5523 8.6327 18.0509 7.42991C18.2556 6.93302 18.4085 6.42232 18.4363 5.88205C18.4761 5.15446 18.3827 4.44856 18.0768 3.77815C17.7152 2.98944 17.1609 2.36635 16.412 1.92861C15.5815 1.44355 14.6836 1.26215 13.726 1.39229C13.1201 1.4751 12.5638 1.68214 12.0493 2.00749C11.5765 2.30523 11.2149 2.72325 10.8235 3.10774C10.5871 3.3345 10.3428 3.54745 10.1063 3.76632Z" fill="black" stroke="#333333" stroke-miterlimit="10"/>
<path d="M10.1064 3.76629C10.3448 3.54742 10.5891 3.33447 10.8176 3.10969C11.209 2.72322 11.5705 2.30717 12.0433 2.00943C12.5579 1.68408 13.1141 1.47704 13.7201 1.39423C14.6796 1.26409 15.5776 1.4455 16.406 1.93056C17.157 2.37027 17.7093 2.99138 18.0708 3.7801C18.3768 4.4505 18.4701 5.1564 18.4304 5.88399C18.4026 6.42426 18.2496 6.93496 18.045 7.43185C17.5483 8.63464 16.8053 9.6856 15.9789 10.6833C15.4226 11.3577 14.8207 11.9906 14.1889 12.594C13.4658 13.2881 12.7148 13.9526 11.9321 14.5796C11.344 15.0528 10.7441 15.5122 10.1461 15.9835C9.90572 15.8021 9.67527 15.6305 9.44879 15.459C8.44752 14.6939 7.47804 13.8895 6.55028 13.0357C5.55497 12.1188 4.62125 11.1428 3.79878 10.0681C3.22066 9.30308 2.70016 8.50253 2.31078 7.62311C2.10616 7.16171 1.93332 6.68848 1.87968 6.18765C1.84193 5.82484 1.84789 5.45414 1.86378 5.08739C1.88166 4.68317 1.98497 4.29079 2.14191 3.91615C2.56308 2.91645 3.26834 2.18492 4.25968 1.72746C4.89342 1.43564 5.56093 1.31141 6.25625 1.36071C7.18203 1.42578 8.01245 1.74521 8.69983 2.37027C9.14483 2.77645 9.55607 3.22011 9.98121 3.64601C10.0329 3.69728 10.0885 3.74263 10.1421 3.79193C10.1302 3.78207 10.1183 3.77418 10.1064 3.76629Z" fill="white"/>
</svg>
