<svg width="20" height="18" viewBox="0 0 20 18" fill="none" xmlns="http://www.w3.org/2000/svg">
<path d="M19.2668 5.92931C19.2449 6.09494 19.227 6.26057 19.1992 6.42423C19.088 7.08675 18.8516 7.70787 18.5575 8.30926C18.0549 9.33262 17.4013 10.2594 16.6762 11.1368C15.7603 12.245 14.7372 13.2466 13.6605 14.197C12.8737 14.8891 12.0632 15.5536 11.2248 16.1866C10.8931 16.437 10.5553 16.6795 10.2216 16.928C10.16 16.9753 10.1183 16.9772 10.0507 16.9299C8.78324 16.0229 7.56742 15.0528 6.40324 14.0176C5.28675 13.0218 4.23383 11.965 3.30805 10.7878C2.6028 9.89261 1.97502 8.9501 1.52206 7.90308C1.25188 7.27802 1.05321 6.63324 1.01149 5.95298C0.934015 4.64765 1.24393 3.45077 2.07236 2.41559C2.84914 1.44349 3.86034 0.844069 5.08809 0.61337C5.27284 0.577878 5.46158 0.569991 5.64832 0.548301C5.67812 0.544357 5.70593 0.53647 5.73375 0.532527C5.89864 0.532527 6.06551 0.532527 6.23041 0.532527C6.26219 0.538442 6.29398 0.548301 6.32576 0.550273C6.79064 0.57985 7.24161 0.670552 7.67867 0.830267C8.39187 1.08266 9.00773 1.48293 9.53817 2.01531C9.73683 2.21643 9.94742 2.40573 10.164 2.60882C10.2156 2.55361 10.2832 2.48263 10.3527 2.41164C10.6904 2.06066 11.0262 1.70771 11.4314 1.42772C12.0433 1.00378 12.7128 0.715903 13.4538 0.603511C13.6485 0.573934 13.8452 0.552245 14.0419 0.526611C14.2068 0.526611 14.3737 0.526611 14.5385 0.526611C14.5664 0.532527 14.5962 0.540414 14.624 0.544357C14.8107 0.566047 14.9994 0.573934 15.1842 0.609426C16.4457 0.848013 17.4708 1.47307 18.2516 2.4846C18.7482 3.1274 19.0661 3.85302 19.1913 4.65554C19.2211 4.84877 19.2409 5.04398 19.2668 5.23919C19.2668 5.46989 19.2668 5.69861 19.2668 5.92931ZM10.1063 3.76626C10.1183 3.77415 10.1302 3.78401 10.1441 3.79189C10.0905 3.74457 10.0348 3.69725 9.98318 3.64598C9.55406 3.22008 9.14481 2.77445 8.6998 2.37023C8.01242 1.74518 7.18201 1.42575 6.25822 1.36068C5.56488 1.31138 4.89538 1.43561 4.26164 1.72743C3.27031 2.18489 2.56505 2.91642 2.14388 3.91612C1.98694 4.29076 1.88164 4.68117 1.86575 5.08736C1.84986 5.45411 1.8439 5.82284 1.88164 6.18762C1.9333 6.68845 2.10812 7.16168 2.31275 7.62308C2.70213 8.5025 3.22263 9.30305 3.80471 10.0661C4.62719 11.1427 5.55892 12.1168 6.55622 13.0337C7.48398 13.8875 8.45147 14.6919 9.45473 15.457C9.6812 15.6305 9.91166 15.8001 10.152 15.9815C10.752 15.5122 11.35 15.0508 11.938 14.5776C12.7208 13.9506 13.4717 13.2861 14.1949 12.592C14.8266 11.9867 15.4266 11.3537 15.9848 10.6813C16.8093 9.6836 17.5523 8.63264 18.0509 7.42985C18.2556 6.93295 18.4085 6.42226 18.4363 5.88199C18.4761 5.1544 18.3827 4.4485 18.0768 3.77809C17.7152 2.98938 17.1609 2.36629 16.412 1.92855C15.5815 1.44349 14.6836 1.26209 13.726 1.39223C13.1201 1.47504 12.5638 1.68208 12.0493 2.00743C11.5765 2.30517 11.2149 2.72318 10.8235 3.10768C10.5871 3.33444 10.3428 3.54739 10.1063 3.76626Z" fill="black" stroke="white" stroke-miterlimit="10"/>
</svg>
