<svg width="20" height="18" viewBox="0 0 20 18" fill="none" xmlns="http://www.w3.org/2000/svg">
<path d="M19.2668 5.92931C19.2449 6.09494 19.227 6.26057 19.1992 6.42423C19.088 7.08675 18.8516 7.70787 18.5575 8.30926C18.0549 9.33262 17.4013 10.2594 16.6762 11.1368C15.7603 12.245 14.7372 13.2466 13.6605 14.197C12.8737 14.8891 12.0632 15.5536 11.2248 16.1866C10.8931 16.437 10.5553 16.6795 10.2216 16.928C10.16 16.9753 10.1183 16.9772 10.0507 16.9299C8.78324 16.0229 7.56742 15.0528 6.40324 14.0176C5.28675 13.0218 4.23383 11.965 3.30805 10.7878C2.6028 9.89261 1.97502 8.9501 1.52206 7.90308C1.25188 7.27802 1.05321 6.63324 1.01149 5.95298C0.934015 4.64765 1.24393 3.45077 2.07236 2.41559C2.84914 1.44349 3.86034 0.844069 5.08809 0.61337C5.27284 0.577878 5.46158 0.569991 5.64832 0.548301C5.67812 0.544357 5.70593 0.53647 5.73375 0.532527C5.89864 0.532527 6.06551 0.532527 6.23041 0.532527C6.26219 0.538442 6.29398 0.548301 6.32576 0.550273C6.79064 0.57985 7.24161 0.670552 7.67867 0.830267C8.39187 1.08266 9.00773 1.48293 9.53817 2.01531C9.73683 2.21643 9.94742 2.40573 10.164 2.60882C10.2156 2.55361 10.2832 2.48263 10.3527 2.41164C10.6904 2.06066 11.0262 1.70771 11.4314 1.42772C12.0433 1.00378 12.7128 0.715903 13.4538 0.603511C13.6485 0.573934 13.8452 0.552245 14.0419 0.526611C14.2068 0.526611 14.3737 0.526611 14.5385 0.526611C14.5664 0.532527 14.5962 0.540414 14.624 0.544357C14.8107 0.566047 14.9994 0.573934 15.1842 0.609426C16.4457 0.848013 17.4708 1.47307 18.2516 2.4846C18.7482 3.1274 19.0661 3.85302 19.1913 4.65554C19.2211 4.84877 19.2409 5.04398 19.2668 5.23919C19.2668 5.46989 19.2668 5.69861 19.2668 5.92931ZM10.1063 3.76626C10.1183 3.77415 10.1302 3.78401 10.1441 3.79189C10.0905 3.74457 10.0348 3.69725 9.98318 3.64598C9.55406 3.22008 9.14481 2.77445 8.6998 2.37023C8.01242 1.74518 7.18201 1.42575 6.25822 1.36068C5.56488 1.31138 4.89538 1.43561 4.26164 1.72743C3.27031 2.18489 2.56505 2.91642 2.14388 3.91612C1.98694 4.29076 1.88164 4.68117 1.86575 5.08736C1.84986 5.45411 1.8439 5.82284 1.88164 6.18762C1.9333 6.68845 2.10812 7.16168 2.31275 7.62308C2.70213 8.5025 3.22263 9.30305 3.80471 10.0661C4.62719 11.1427 5.55892 12.1168 6.55622 13.0337C7.48398 13.8875 8.45147 14.6919 9.45473 15.457C9.6812 15.6305 9.91166 15.8001 10.152 15.9815C10.752 15.5122 11.35 15.0508 11.938 14.5776C12.7208 13.9506 13.4717 13.2861 14.1949 12.592C14.8266 11.9867 15.4266 11.3537 15.9848 10.6813C16.8093 9.6836 17.5523 8.63264 18.0509 7.42985C18.2556 6.93295 18.4085 6.42226 18.4363 5.88199C18.4761 5.1544 18.3827 4.4485 18.0768 3.77809C17.7152 2.98938 17.1609 2.36629 16.412 1.92855C15.5815 1.44349 14.6836 1.26209 13.726 1.39223C13.1201 1.47504 12.5638 1.68208 12.0493 2.00743C11.5765 2.30517 11.2149 2.72318 10.8235 3.10768C10.5871 3.33444 10.3428 3.54739 10.1063 3.76626Z" fill="black" stroke="white" stroke-miterlimit="10"/>
<path d="M10.1062 3.7662C10.3446 3.54733 10.589 3.33438 10.8175 3.1096C11.2088 2.72312 11.5704 2.30708 12.0432 2.00934C12.5578 1.68399 13.114 1.47695 13.72 1.39414C14.6795 1.264 15.5775 1.4454 16.4059 1.93046C17.1568 2.37017 17.7091 2.99129 18.0707 3.78C18.3766 4.45041 18.47 5.15631 18.4303 5.8839C18.4025 6.42417 18.2495 6.93487 18.0449 7.43176C17.5482 8.63455 16.8052 9.68551 15.9788 10.6832C15.4225 11.3576 14.8206 11.9905 14.1888 12.5939C13.4657 13.288 12.7147 13.9525 11.932 14.5795C11.3439 15.0527 10.744 15.5122 10.146 15.9834C9.9056 15.802 9.67515 15.6305 9.44867 15.4589C8.4474 14.6939 7.47792 13.8894 6.55015 13.0356C5.55485 12.1187 4.62112 11.1427 3.79865 10.068C3.22054 9.30299 2.70004 8.50244 2.31066 7.62302C2.10603 7.16162 1.9332 6.68839 1.87956 6.18756C1.84181 5.82475 1.84777 5.45405 1.86366 5.0873C1.88154 4.68308 1.98485 4.2907 2.14179 3.91606C2.56296 2.91636 3.26822 2.18483 4.25955 1.72737C4.89329 1.43555 5.56081 1.31132 6.25613 1.36062C7.18191 1.42569 8.01232 1.74512 8.6997 2.37017C9.14471 2.77636 9.55595 3.22002 9.98109 3.64592C10.0327 3.69719 10.0884 3.74254 10.142 3.79183C10.1301 3.78198 10.1182 3.77409 10.1062 3.7662Z" fill="#F19515"/>
</svg>
