<svg width="18" height="17" viewBox="0 0 18 17" fill="none" xmlns="http://www.w3.org/2000/svg">
<path d="M14.0427 13.6837C14.3938 14.127 14.5502 14.6157 14.4181 15.1776C14.3347 15.5406 14.1435 15.8442 13.8584 16.0746C13.2257 16.5877 12.4052 16.5877 11.7691 16.0781C11.404 15.7849 11.1989 15.3905 11.1642 14.9228C11.1259 14.4586 11.2858 14.0467 11.6091 13.6593C10.3472 13.6593 9.12694 13.6593 7.88237 13.6593C8.50118 14.5947 8.47337 15.4568 7.56949 16.1584C6.98892 16.6086 6.26234 16.5458 5.70263 16.1619C5.29589 15.8826 5.06296 15.4882 5.00386 14.9926C4.94476 14.5005 5.10816 14.0712 5.4419 13.6419C5.26112 13.6419 5.13597 13.6454 5.01429 13.6419C4.62841 13.6349 4.44068 13.3626 4.56931 12.9962C4.74661 12.4936 4.92738 11.9909 5.10468 11.4883C5.12206 11.436 5.13597 11.3836 5.1603 11.3034C5.06644 11.3034 4.99691 11.3034 4.93086 11.3034C4.60059 11.2999 4.38853 11.1254 4.32943 10.7973C4.08956 9.48142 3.85316 8.16208 3.61328 6.84624C3.34559 5.38729 3.07443 3.93183 2.80674 2.47288C2.80326 2.44845 2.79631 2.42751 2.79284 2.40308C2.71635 1.93189 2.71288 1.93887 2.27832 1.77482C1.65256 1.53748 1.03027 1.28618 0.407984 1.04186C0.175062 0.951109 0.0533854 0.769613 0.00471499 0.546233C-0.040479 0.329834 0.248067 0.0157064 0.491419 0.00174515C0.592237 -0.00523546 0.703483 0.00872577 0.797348 0.0436288C1.60736 0.354266 2.41043 0.678865 3.21696 0.989502C3.50203 1.10119 3.67933 1.27222 3.73496 1.59682C3.94007 2.7905 4.16604 3.9807 4.38505 5.17089C4.62841 6.5007 4.86828 7.8305 5.11163 9.15682C5.17421 9.50585 5.24026 9.85139 5.30979 10.2179C5.38627 10.2179 5.45233 10.2179 5.51838 10.2179C8.31345 10.2179 11.112 10.2179 13.9071 10.2179C14.1921 10.2179 14.1887 10.2179 14.2756 9.94912C14.5155 9.20568 14.7588 8.46225 14.9987 7.71532C15.388 6.5007 15.7705 5.28607 16.1598 4.07493C16.1981 3.95975 16.1703 3.93183 16.059 3.92834C15.5723 3.91438 15.0891 3.89344 14.6024 3.8725C13.7124 3.8341 12.8259 3.79222 11.9359 3.75033C11.5222 3.73288 11.1051 3.71543 10.6914 3.69798C9.63103 3.65261 8.56723 3.60723 7.50691 3.56186C7.03064 3.54092 6.55089 3.51648 6.07461 3.49554C5.78607 3.48158 5.53924 3.23726 5.53924 2.96153C5.53924 2.66834 5.78259 2.42402 6.08852 2.431C6.82901 2.45194 7.56601 2.48684 8.3065 2.51826C8.73411 2.53571 9.16171 2.55665 9.58584 2.57759C10.6879 2.62646 11.7934 2.67183 12.8954 2.7172C14.0739 2.76607 15.2525 2.81144 16.431 2.8638C16.6361 2.87427 16.8482 2.88125 17.0463 2.92662C17.3835 3.00341 17.5226 3.31405 17.4183 3.63515C17.1263 4.52518 16.8482 5.42219 16.5631 6.31571C16.3788 6.8951 16.1911 7.47449 16.0034 8.05388C15.7253 8.91948 15.4506 9.78508 15.1725 10.6507C15.1447 10.7344 15.1204 10.8182 15.0891 10.8985C14.9743 11.1777 14.8075 11.2929 14.5016 11.2929C11.7899 11.2929 9.07827 11.2929 6.36664 11.2929C6.08852 11.2929 6.092 11.2929 6.00161 11.5512C5.8695 11.9351 5.73392 12.3155 5.58791 12.7239C5.66787 12.7309 5.73044 12.7379 5.7965 12.7379C8.65415 12.7379 11.5083 12.7379 14.366 12.7414C14.4633 12.7414 14.5607 12.7518 14.658 12.7693C14.8909 12.8147 15.0334 12.9996 15.0195 13.23C15.0056 13.4499 14.8283 13.6244 14.5954 13.6314C14.4181 13.6384 14.2408 13.6314 14.06 13.6314C14.06 13.6523 14.0496 13.6663 14.0427 13.6837ZM13.5803 14.8006C13.5907 14.3888 13.2431 14.0293 12.8329 14.0223C12.4018 14.0153 12.0437 14.3609 12.0367 14.7937C12.0298 15.202 12.3809 15.5615 12.7911 15.5685C13.2222 15.579 13.5699 15.2404 13.5803 14.8006ZM5.87646 14.8041C5.87646 15.2195 6.2241 15.5685 6.6378 15.5685C7.05845 15.572 7.40957 15.216 7.4061 14.7937C7.4061 14.3748 7.05498 14.0188 6.65171 14.0223C6.21367 14.0258 5.87646 14.3713 5.87646 14.8041Z" fill="white"/>
</svg>
