<svg width="23" height="21" viewBox="0 0 23 21" fill="none" xmlns="http://www.w3.org/2000/svg">
<path d="M11.4628 3.68529C11.7891 3.38575 12.1235 3.0943 12.4362 2.78666C12.9718 2.25773 13.4666 1.68833 14.1137 1.28084C14.8179 0.83557 15.5793 0.552217 16.4085 0.438875C17.7218 0.260767 18.9507 0.509039 20.0845 1.1729C21.1123 1.77468 21.8681 2.62474 22.363 3.70419C22.7817 4.62171 22.9095 5.58781 22.8551 6.58359C22.8171 7.32301 22.6077 8.02195 22.3276 8.702C21.6479 10.3481 20.631 11.7865 19.5 13.152C18.7387 14.0749 17.9148 14.9412 17.0502 15.7669C16.0605 16.7168 15.0327 17.6263 13.9615 18.4844C13.1567 19.1321 12.3356 19.7609 11.5172 20.4058C11.1882 20.1576 10.8728 19.9228 10.5628 19.688C9.19248 18.641 7.86564 17.5399 6.5959 16.3714C5.23371 15.1166 3.95581 13.7808 2.83017 12.31C2.03896 11.263 1.3266 10.1673 0.793693 8.96376C0.513643 8.33229 0.277096 7.68462 0.203685 6.99918C0.152025 6.50264 0.160182 5.9953 0.181933 5.49336C0.206404 4.94015 0.347788 4.40312 0.562584 3.89039C1.139 2.5222 2.10422 1.52102 3.46097 0.894939C4.32831 0.495546 5.24187 0.325534 6.19349 0.392999C7.46052 0.482053 8.59703 0.919227 9.53778 1.77468C10.1468 2.3306 10.7096 2.93778 11.2915 3.52068C11.3622 3.59084 11.4383 3.65291 11.5117 3.72038C11.4954 3.70688 11.4791 3.69609 11.4628 3.68529Z" fill="#F19515"/>
</svg>
