<svg width="20" height="22" viewBox="0 0 20 22" fill="none" xmlns="http://www.w3.org/2000/svg">
<path d="M9.13441 20.9961C9.08724 20.9805 9.03615 20.9609 8.98899 20.9492C8.24224 20.7578 7.71952 20.0898 7.71952 19.332C7.71952 18.5781 8.23438 17.9102 8.96148 17.7188C9.70822 17.5234 10.4785 17.8477 10.8519 18.5234C10.9266 18.6602 11.0013 18.7109 11.1585 18.6836C13.7878 18.2109 15.7254 16.8008 16.9595 14.4453C16.9752 14.4102 16.9909 14.375 17.0027 14.3438C16.7237 14.3203 16.4486 14.3281 16.1852 14.2734C15.2105 14.0781 14.4795 13.2617 14.4402 12.2773C14.4048 11.418 14.397 10.5586 14.4441 9.69922C14.5149 8.35938 15.8237 7.42578 17.1442 7.73828C17.2425 7.76172 17.3446 7.78125 17.4783 7.80859C17.1088 6.42969 16.4014 5.28125 15.3953 4.3125C13.9882 2.96484 12.2982 2.23047 10.341 2.14063C6.00595 1.9375 3.11723 5.05469 2.44909 7.80469C2.55128 7.78125 2.6456 7.76563 2.736 7.74219C4.11158 7.41016 5.45571 8.42578 5.4793 9.83203C5.49502 10.6211 5.49502 11.4063 5.4793 12.1953C5.45964 13.3672 4.49281 14.3047 3.28623 14.3398C2.13074 14.3711 1.0853 13.457 1.04207 12.3008C0.987047 10.8594 0.935954 9.41016 1.23465 7.98047C1.9303 4.60547 4.8033 1.80859 8.21473 1.19141C8.59203 1.12109 8.98113 1.08984 9.36236 1.03906C9.41738 1.03125 9.47241 1.01172 9.52743 1C9.80254 1 10.0777 1 10.3528 1C10.4078 1.01172 10.4668 1.03125 10.5218 1.03516C12.5812 1.17188 14.3813 1.92969 15.918 3.29297C17.6551 4.83594 18.6338 6.78125 18.8342 9.07812C18.9285 10.1445 18.8696 11.2227 18.8774 12.2969C18.8774 12.3477 18.8735 12.4023 18.8578 12.4531C18.7163 12.9102 18.5905 13.375 18.4215 13.8242C17.1717 17.1875 14.7704 19.1875 11.2056 19.793C11.0641 19.8164 10.9738 19.8672 10.9187 20.0078C10.7733 20.3633 10.5178 20.6328 10.172 20.8047C10.003 20.8867 9.8222 20.9375 9.64534 21C9.47634 20.9961 9.30734 20.9961 9.13441 20.9961ZM15.5407 11.0039C15.5407 11.3672 15.5367 11.7344 15.5407 12.0977C15.5485 12.7188 16.0202 13.2109 16.6097 13.2266C17.2425 13.2383 17.7534 12.7852 17.7691 12.1484C17.7888 11.3867 17.7888 10.625 17.7691 9.86719C17.7534 9.25391 17.2385 8.77344 16.6529 8.78516C16.0241 8.79688 15.5485 9.28125 15.5446 9.91797C15.5367 10.2773 15.5407 10.6406 15.5407 11.0039ZM4.3749 11.0273C4.3749 10.6836 4.37883 10.3398 4.37097 9.99219C4.36704 9.85156 4.35132 9.70313 4.31202 9.57031C4.15481 9.04297 3.65174 8.72656 3.10151 8.80078C2.55914 8.87109 2.15039 9.31641 2.14253 9.86719C2.13467 10.6016 2.1386 11.3359 2.1386 12.0703C2.14253 12.7266 2.61809 13.2227 3.23907 13.2266C3.87969 13.2305 4.36311 12.7422 4.37097 12.082C4.37883 11.7266 4.3749 11.3789 4.3749 11.0273Z" fill="#333333" stroke="#333333" stroke-width="0.3" stroke-miterlimit="10"/>
</svg>
