<svg width="23" height="21" viewBox="0 0 23 21" fill="none" xmlns="http://www.w3.org/2000/svg">
<path d="M22.0685 7.23137C22.0433 7.4224 22.0227 7.61343 21.9906 7.80219C21.8623 8.56633 21.5896 9.28271 21.2505 9.97635C20.6708 11.1567 19.9169 12.2256 19.0806 13.2376C18.0243 14.5157 16.8442 15.671 15.6023 16.7672C14.6949 17.5654 13.7601 18.3318 12.7931 19.0619C12.4104 19.3507 12.0209 19.6304 11.636 19.917C11.5649 19.9715 11.5168 19.9738 11.4389 19.9192C9.97703 18.8731 8.57472 17.7542 7.23199 16.5602C5.94425 15.4117 4.72983 14.1928 3.66206 12.835C2.84863 11.8025 2.12456 10.7155 1.60213 9.50786C1.29051 8.78693 1.06138 8.04326 1.01326 7.25866C0.923894 5.75312 1.28135 4.37267 2.23684 3.1787C3.13276 2.05751 4.29906 1.36615 5.71511 1.10007C5.92821 1.05913 6.14589 1.05003 6.36127 1.02502C6.39565 1.02047 6.42772 1.01137 6.4598 1.00682C6.64999 1.00682 6.84246 1.00682 7.03264 1.00682C7.0693 1.01365 7.10596 1.02502 7.14263 1.02729C7.6788 1.0614 8.19894 1.16602 8.70304 1.35023C9.52563 1.64133 10.236 2.103 10.8477 2.71704C11.0769 2.94901 11.3198 3.16733 11.5695 3.40158C11.6291 3.3379 11.707 3.25603 11.7872 3.17415C12.1767 2.76934 12.564 2.36226 13.0314 2.03932C13.7371 1.55036 14.5093 1.21833 15.364 1.08869C15.5886 1.05458 15.8154 1.02956 16.0422 1C16.2324 1 16.4249 1 16.6151 1C16.6472 1.00682 16.6815 1.01592 16.7136 1.02047C16.929 1.04548 17.1467 1.05458 17.3598 1.09552C18.8148 1.3707 19.9971 2.09163 20.8976 3.2583C21.4705 3.9997 21.8371 4.83661 21.9814 5.76222C22.0158 5.98509 22.0387 6.21024 22.0685 6.43539C22.0685 6.70147 22.0685 6.96528 22.0685 7.23137ZM11.5031 4.73654C11.5168 4.74564 11.5306 4.75701 11.5466 4.76611C11.4847 4.71153 11.4206 4.65695 11.361 4.59782C10.8661 4.10659 10.3941 3.59261 9.88079 3.1264C9.08799 2.40547 8.1302 2.03704 7.06472 1.962C6.26504 1.90514 5.49285 2.04842 4.76191 2.385C3.61853 2.91262 2.8051 3.75636 2.31933 4.90939C2.13831 5.34149 2.01687 5.79178 1.99854 6.26027C1.98021 6.68328 1.97333 7.10856 2.01687 7.52929C2.07644 8.10694 2.27808 8.65275 2.51409 9.18492C2.9632 10.1992 3.56353 11.1226 4.2349 12.0027C5.18352 13.2444 6.25816 14.3679 7.40842 15.4254C8.47849 16.4101 9.59437 17.338 10.7515 18.2204C11.0127 18.4205 11.2785 18.6161 11.5558 18.8253C12.2478 18.2841 12.9375 17.7519 13.6157 17.2061C14.5185 16.4829 15.3846 15.7165 16.2187 14.916C16.9473 14.2178 17.6393 13.4877 18.2832 12.7122C19.2341 11.5615 20.0911 10.3493 20.6662 8.96205C20.9022 8.38894 21.0786 7.79992 21.1107 7.17678C21.1565 6.3376 21.0488 5.52343 20.696 4.75019C20.279 3.8405 19.6397 3.12185 18.7758 2.61697C17.818 2.05751 16.7823 1.84828 15.6779 1.99838C14.9791 2.0939 14.3375 2.33269 13.744 2.70794C13.1987 3.05135 12.7816 3.53348 12.3302 3.97695C12.0576 4.23849 11.7757 4.48411 11.5031 4.73654Z" fill="#F19515" stroke="#F19515" stroke-miterlimit="10"/>
<path d="M11.5031 4.73651C11.7781 4.48407 12.0599 4.23846 12.3234 3.9792C12.7748 3.53345 13.1918 3.05359 13.7372 2.71018C14.3306 2.33494 14.9722 2.09614 15.6711 2.00062C16.7778 1.85053 17.8135 2.05975 18.769 2.61921C19.6351 3.12636 20.2721 3.84274 20.6892 4.75243C21.042 5.52567 21.1497 6.33984 21.1039 7.17903C21.0718 7.80216 20.8954 8.39118 20.6594 8.96429C20.0865 10.3516 19.2296 11.5637 18.2764 12.7145C17.6348 13.4923 16.9405 14.2223 16.2119 14.9182C15.3778 15.7187 14.5117 16.4851 13.6089 17.2083C12.9306 17.7542 12.2386 18.284 11.5489 18.8276C11.2717 18.6184 11.0059 18.4205 10.7447 18.2226C9.58984 17.3402 8.47166 16.4124 7.4016 15.4276C6.25363 14.3701 5.17669 13.2444 4.22807 12.0049C3.56129 11.1225 2.96095 10.1992 2.51185 9.18489C2.27584 8.65272 2.07649 8.10691 2.01462 7.52926C1.97109 7.1108 1.97796 6.68325 1.99629 6.26024C2.01692 5.79402 2.13607 5.34145 2.31708 4.90935C2.80285 3.75632 3.61628 2.91259 4.75967 2.38497C5.49061 2.04838 6.2605 1.90511 7.06248 1.96196C8.13025 2.03701 9.08803 2.40544 9.88084 3.12636C10.3941 3.59485 10.8684 4.10655 11.3588 4.59778C11.4183 4.65691 11.4825 4.70922 11.5444 4.76608C11.5306 4.75471 11.5169 4.74561 11.5031 4.73651Z" fill="white"/>
</svg>
