<svg width="20" height="19" viewBox="0 0 20 19" fill="none" xmlns="http://www.w3.org/2000/svg">
<path d="M0 18.9913C0.815451 15.4537 2.87806 13.1033 6.11588 11.7122C2.39838 9.14592 2.5183 4.50505 4.86872 2.02272C7.38702 -0.627495 11.4283 -0.675463 14.0186 1.89081C16.333 4.19326 16.8486 8.91808 12.9153 11.7122C16.1891 13.0553 18.2037 15.4417 19.0072 18.9793C18.5155 18.9793 18.0958 19.0273 17.7001 18.9553C17.5442 18.9313 17.3763 18.6555 17.3163 18.4756C16.357 15.5256 14.4023 13.6189 11.3923 12.8634C7.24312 11.8321 2.93802 14.3144 1.75082 18.4037C1.60692 18.8954 1.39106 19.0393 0.93537 18.9913C0.659556 18.9673 0.395733 18.9913 0 18.9913ZM14.2584 6.3638C14.2464 3.6896 12.0998 1.53105 9.48561 1.55503C6.88336 1.57902 4.7488 3.72557 4.7488 6.29184C4.76079 8.96604 6.89536 11.1246 9.52159 11.1006C12.1118 11.0886 14.2584 8.93007 14.2584 6.3638Z" fill="#F19515"/>
</svg>
