<svg width="20" height="19" viewBox="0 0 20 19" fill="none" xmlns="http://www.w3.org/2000/svg">
<path d="M18.8889 13.1944C17.5 13.1944 16.1667 12.9833 14.9222 12.5928C14.5333 12.4767 14.1 12.5611 13.7889 12.8461L11.3444 15.1683C8.2 13.6483 5.62222 11.21 4.02222 8.21222L6.46667 5.87944C6.77778 5.605 6.86667 5.19333 6.74444 4.82389C6.33333 3.64167 6.11111 2.375 6.11111 1.05556C6.11111 0.475 5.61111 0 5 0H1.11111C0.5 0 0 0.475 0 1.05556C0 10.9672 8.45556 19 18.8889 19C19.5 19 20 18.525 20 17.9444V14.25C20 13.6694 19.5 13.1944 18.8889 13.1944Z" fill="#F19515"/>
</svg>
