<svg width="21" height="15" viewBox="0 0 21 15" fill="none" xmlns="http://www.w3.org/2000/svg">
<path d="M12.0006 3.62739C12.0006 4.35488 11.9897 5.08238 12.0079 5.80987C12.0152 6.09632 12.0553 6.39641 12.1354 6.66467C12.3103 7.24212 12.7002 7.35579 13.0209 6.89201C13.4654 6.24636 13.8954 5.57798 14.2707 4.86868C14.8282 3.81381 15.2509 2.66347 15.6225 1.48584C15.648 1.39945 15.6845 1.3176 15.71 1.23121C15.8484 0.803813 16.1071 0.631034 16.4679 0.631034C17.2987 0.635581 18.1331 0.631034 18.9639 0.631034C19.2044 0.631034 19.4485 0.631034 19.689 0.635581C19.7947 0.635581 19.904 0.640128 20.0096 0.658315C20.5599 0.767439 20.7056 1.06753 20.5416 1.72682C20.3339 2.56798 19.9586 3.30457 19.5505 4.00933C18.9311 5.08238 18.2934 6.13724 17.663 7.2012C17.5574 7.38307 17.4553 7.57404 17.3679 7.76955C17.1748 8.19241 17.193 8.61071 17.4517 8.97901C17.6958 9.32456 17.9582 9.64739 18.2242 9.96567C18.8837 10.7523 19.5505 11.5343 20.0862 12.4619C20.2501 12.7438 20.4068 13.0439 20.5125 13.3667C20.5817 13.5668 20.5817 13.8259 20.5599 14.0487C20.5234 14.4034 20.3011 14.6716 20.0133 14.6716C18.8874 14.6853 17.7614 14.6989 16.6355 14.6625C15.9905 14.6444 15.4841 14.2079 15.0541 13.635C14.6205 13.053 14.1905 12.4664 13.7533 11.889C13.6439 11.7435 13.5164 11.6162 13.3889 11.4979C12.9698 11.1251 12.5435 11.2433 12.3577 11.8344C12.2229 12.2618 12.1536 12.7301 12.0771 13.1803C12.0334 13.4394 12.037 13.7123 12.0006 13.976C11.9532 14.3261 11.782 14.5625 11.5014 14.6034C11.1443 14.6534 10.7799 14.6898 10.4192 14.6853C7.86126 14.658 5.87175 13.2439 4.31221 10.7841C2.75996 8.33336 1.56844 5.6189 0.52267 2.79532C0.369631 2.38611 0.209305 1.98144 0.0744847 1.56313C-0.104061 1.01751 0.0380464 0.731064 0.504451 0.662861C0.675709 0.63558 0.854254 0.640127 1.02551 0.640127C1.84901 0.640127 2.67615 0.644674 3.49964 0.640127C3.88953 0.640127 4.1701 0.853828 4.33407 1.29032C4.64015 2.09056 4.9025 2.91809 5.24866 3.6865C5.67863 4.63679 6.1669 5.5507 6.65516 6.46006C6.78998 6.71014 6.99404 6.91475 7.19444 7.08753C7.47502 7.32851 7.73737 7.23757 7.86126 6.842C7.96328 6.51917 8.0398 6.17361 8.06895 5.82806C8.16005 4.65043 8.17098 3.4728 8.00701 2.29972C7.9232 1.69044 7.62806 1.29942 7.14343 1.14483C6.78998 1.03115 6.78634 0.967499 7.02683 0.62194C7.26732 0.280928 7.56975 0.144523 7.91956 0.144523C9.00541 0.139977 10.0913 0.139977 11.1807 0.144523C11.6945 0.14907 11.986 0.571925 11.9933 1.3176C12.0006 2.08602 11.997 2.85898 11.997 3.62739C11.997 3.62739 11.997 3.62739 12.0006 3.62739Z" fill="#333333" fill-opacity="0.75"/>
</svg>
