<svg width="15" height="15" viewBox="0 0 15 15" fill="none" xmlns="http://www.w3.org/2000/svg">
<path d="M0 5.14111C0 2.37969 2.23858 0.141113 5 0.141113H9.71792C12.4793 0.141113 14.7179 2.37969 14.7179 5.14111V9.85903C14.7179 12.6205 12.4793 14.859 9.71792 14.859H5C2.23857 14.859 0 12.6205 0 9.85903V5.14111Z" fill="#333333" fill-opacity="0.75"/>
<path d="M1.96488 7.50123C1.96488 6.77796 1.96488 6.0547 1.96488 5.33144C1.96733 3.70593 3.09536 2.38445 4.70159 2.14172C4.99096 2.09759 5.28768 2.1074 5.58195 2.1074C6.92578 2.10495 8.26962 2.10005 9.61345 2.1074C11.0848 2.11721 12.3747 3.17391 12.6763 4.61308C12.7205 4.82638 12.7499 5.04949 12.7499 5.26769C12.7548 6.77796 12.7597 8.29069 12.7499 9.80096C12.7401 11.272 11.5802 12.618 10.126 12.8362C9.71644 12.8975 9.29466 12.8902 8.88023 12.8926C7.6541 12.9 6.42797 12.8951 5.2043 12.8951C4.25038 12.8951 3.44113 12.5494 2.79619 11.8482C2.2665 11.2671 1.98204 10.5782 1.96978 9.79115C1.95507 9.02866 1.96733 8.26372 1.96488 7.50123ZM2.45533 7.48652C2.45533 7.90822 2.45288 8.32746 2.45533 8.74916C2.45778 9.17331 2.44061 9.59992 2.4823 10.0216C2.60737 11.3456 3.77219 12.3949 5.10376 12.3998C6.59228 12.4047 8.07834 12.4047 9.56686 12.4023C11.0676 12.3974 12.2594 11.2083 12.2643 9.70534C12.2692 8.22694 12.2668 6.74609 12.2619 5.26769C12.2619 5.08626 12.2398 4.89993 12.2006 4.72095C11.9308 3.46566 10.842 2.5953 9.54233 2.5953C8.16907 2.5953 6.79581 2.59284 5.42255 2.59775C5.18714 2.59775 4.94681 2.59775 4.71385 2.63698C3.37247 2.86744 2.45778 3.96582 2.45533 5.33144C2.45533 6.0498 2.45533 6.76816 2.45533 7.48652Z" fill="white"/>
<path d="M4.66239 7.49134C4.6722 5.98107 5.88606 4.79688 7.41872 4.80423C8.86064 4.81159 10.0696 6.05217 10.0598 7.51095C10.0475 9.01387 8.83122 10.2103 7.32799 10.1981C5.85663 10.1858 4.65503 8.96239 4.66239 7.49134ZM9.56689 7.50115C9.56199 6.26547 8.57863 5.28968 7.34025 5.29213C6.13374 5.29703 5.14548 6.29489 5.15284 7.50115C5.16019 8.74173 6.14355 9.70772 7.39665 9.70281C8.58354 9.70036 9.5718 8.6976 9.56689 7.50115Z" fill="white"/>
<path d="M10.7932 4.5614C10.7932 4.83109 10.5676 5.05175 10.3003 5.0493C10.0305 5.04685 9.80982 4.82374 9.81228 4.5565C9.81473 4.28681 10.0354 4.0686 10.3052 4.0686C10.5749 4.0686 10.7956 4.29171 10.7932 4.5614Z" fill="white"/>
</svg>
