<svg width="17" height="15" viewBox="0 0 17 15" fill="none" xmlns="http://www.w3.org/2000/svg">
<path d="M0 6.87785C0 6.80191 0 6.72266 0 6.64672C0.091541 6.45852 0.2452 6.35946 0.43809 6.28682C1.5562 5.85758 2.67104 5.42175 3.78587 4.98591C6.65961 3.86659 9.53007 2.74727 12.4038 1.62796C13.6167 1.15579 14.8264 0.683635 16.0393 0.211475C16.1799 0.158646 16.3303 0.0959109 16.461 0.188362C16.5722 0.267605 16.6507 0.399678 16.7422 0.505337C16.7422 0.581278 16.7422 0.660522 16.7422 0.736464C16.7324 0.756275 16.716 0.772784 16.7128 0.792595C16.4578 2.03738 16.206 3.28217 15.9477 4.52695C15.6372 6.04579 15.32 7.56132 15.0062 9.08016C14.6367 10.8764 14.2673 12.6725 13.8946 14.4687C13.8488 14.6933 13.6821 14.8716 13.4761 14.8583C13.3356 14.8484 13.1819 14.7791 13.0642 14.6933C11.8415 13.8051 10.622 12.907 9.40583 12.0122C9.03313 11.7381 8.77485 11.748 8.42177 12.0386C7.75156 12.59 7.07808 13.1414 6.40787 13.6961C6.27056 13.8117 6.12344 13.8579 5.95343 13.8117C5.72131 13.7489 5.65266 13.5475 5.59054 13.3428C5.12302 11.824 4.65551 10.3051 4.18473 8.7896C4.16184 8.72026 4.08992 8.64102 4.02126 8.61791C2.81815 8.15565 1.61178 7.7 0.405397 7.25095C0.212507 7.17501 0.0751944 7.06605 0 6.87785ZM5.04456 8.55187C5.0511 8.59149 5.0511 8.64762 5.06745 8.70045C5.3388 9.67119 5.61015 10.6419 5.88478 11.6127C5.9142 11.7216 5.98286 11.781 6.10055 11.7678C6.22479 11.7546 6.26075 11.6655 6.27709 11.5631C6.33594 11.124 6.39806 10.6848 6.4471 10.2424C6.49614 9.80326 6.6498 9.43015 6.98981 9.13959C7.24809 8.91837 7.48347 8.67734 7.73194 8.44621C8.97755 7.27737 10.2199 6.11183 11.4655 4.94628C11.9951 4.44771 12.5248 3.94913 13.0544 3.45056C13.1231 3.38782 13.1884 3.30528 13.1002 3.23264C13.0577 3.19632 12.9465 3.20292 12.8909 3.23264C12.685 3.3449 12.4888 3.47367 12.2894 3.59584C10.5991 4.64912 8.9089 5.6991 7.21866 6.75238C6.59749 7.13869 5.97632 7.525 5.36169 7.91792C5.13937 8.0599 5.05437 8.28112 5.04456 8.55187Z" fill="white"/>
</svg>
