<svg width="46" height="40" viewBox="0 0 46 40" fill="none" xmlns="http://www.w3.org/2000/svg">
<path d="M45.6473 15.4359C45.6473 15.7706 45.6473 16.1003 45.6473 16.435C45.6322 16.47 45.6071 16.51 45.6021 16.5449C45.3612 18.5481 44.3172 20.0218 42.5855 21.0258C41.9932 21.3705 41.3356 21.5704 40.6379 21.7052C40.6379 26.5708 40.6379 31.4264 40.6379 36.3169C38.9614 36.3169 37.3101 36.3169 35.6486 36.3169C35.6486 36.4318 35.6486 36.5117 35.6486 36.5967C35.6486 37.0363 35.6486 37.4809 35.6486 37.9205C35.6486 38.5499 35.4428 38.7997 34.7552 39.0195C34.705 39.0195 34.6548 39.0195 34.6046 39.0195C33.8818 38.8146 33.7112 38.44 33.7413 37.7706C33.7613 37.291 33.7463 36.8115 33.7463 36.3269C26.6087 36.3269 19.4962 36.3269 12.3737 36.3269C12.3737 36.8664 12.3737 37.3909 12.3737 37.9155C12.3737 38.0453 12.3686 38.1852 12.3385 38.3101C12.2331 38.7347 11.9018 38.9096 11.5204 39.0195C11.4551 39.0195 11.3848 39.0195 11.3196 39.0195C10.6018 38.7347 10.4713 38.5399 10.4713 37.7506C10.4713 37.281 10.4713 36.8065 10.4713 36.3069C8.79483 36.3069 7.14344 36.3069 5.46696 36.3069C5.46696 31.4214 5.46696 26.5608 5.46696 21.7102C5.21599 21.6453 4.9851 21.6053 4.76425 21.5304C2.61092 20.841 1.21553 19.4223 0.633277 17.2343C0.557986 16.9695 0.52285 16.6998 0.472656 16.435C0.472656 16.0853 0.472656 15.7357 0.472656 15.386C0.492734 15.2811 0.517831 15.1812 0.532889 15.0763C1.13522 10.97 5.88357 8.73704 9.44735 10.8951C9.79369 11.1049 10.1149 11.3447 10.4713 11.5844C10.4713 11.1299 10.4713 10.6903 10.4713 10.2507C10.4813 8.77201 10.4211 7.28337 10.5165 5.80971C10.6871 3.17711 12.6397 0.909172 15.2146 0.249772C15.6614 0.134877 16.1282 0.0849226 16.5849 0C20.9016 0 25.2183 0 29.535 0C29.7408 0.0299727 29.9416 0.0599454 30.1474 0.0899181C33.3698 0.579472 35.6486 3.22206 35.6486 6.46411C35.6486 8.07764 35.6486 9.69617 35.6486 11.3097C35.6486 11.3946 35.6486 11.4845 35.6486 11.6194C35.739 11.5445 35.7892 11.5045 35.8394 11.4646C37.4054 10.2157 39.1773 9.75611 41.1248 10.2507C43.3584 10.8201 44.8141 12.2438 45.4515 14.4618C45.5419 14.7815 45.582 15.1112 45.6473 15.4359ZM12.3737 23.7384C19.5113 23.7384 26.6238 23.7384 33.7463 23.7384C33.7463 23.6085 33.7463 23.4986 33.7463 23.3937C33.7463 17.8437 33.7463 12.2888 33.7463 6.73886C33.7463 6.44913 33.7312 6.15439 33.7061 5.86965C33.5154 3.72161 31.5528 1.90327 29.3894 1.89827C25.2685 1.88828 21.1476 1.89328 17.0267 1.89827C16.6954 1.89827 16.3541 1.91825 16.0278 1.9782C13.8694 2.40781 12.3737 4.22615 12.3737 6.41915C12.3737 12.114 12.3737 17.8038 12.3737 23.4986C12.3737 23.5735 12.3737 23.6485 12.3737 23.7384ZM33.7312 25.6466C26.6037 25.6466 19.4962 25.6466 12.3837 25.6466C12.3837 28.584 12.3837 31.5013 12.3837 34.4236C19.5062 34.4236 26.6087 34.4236 33.7312 34.4236C33.7312 31.4963 33.7312 28.584 33.7312 25.6466ZM10.4663 34.4386C10.4663 34.3437 10.4663 34.2738 10.4663 34.1988C10.4663 28.0644 10.4713 21.93 10.4512 15.7956C10.4512 15.336 10.3358 14.8465 10.1601 14.4169C9.37708 12.5336 7.39441 11.5795 5.38665 12.074C3.73527 12.4786 2.5005 13.9423 2.38003 15.6258C2.25956 17.3392 3.26846 18.9477 4.85962 19.5872C5.42681 19.8169 6.01408 19.9069 6.62143 19.8969C6.86738 19.8919 7.11333 19.8969 7.37936 19.8969C7.37936 24.7674 7.37936 29.593 7.37936 34.4336C8.41335 34.4386 9.42225 34.4386 10.4663 34.4386ZM38.7406 34.4236C38.7406 29.5681 38.7406 24.7425 38.7406 19.9019C38.9765 19.9019 39.1823 19.9169 39.3881 19.8969C39.8097 19.8669 40.2414 19.8619 40.653 19.772C42.7109 19.3074 44.026 17.3192 43.6797 15.2311C43.3484 13.223 41.3858 11.7443 39.3329 11.9491C37.1745 12.1639 35.6436 13.8424 35.6436 16.0154C35.6386 22.0599 35.6436 28.1044 35.6436 34.1489C35.6436 34.2388 35.6436 34.3287 35.6436 34.4286C36.6826 34.4236 37.6915 34.4236 38.7406 34.4236Z" fill="#333333"/>
</svg>
