<svg width="40" height="39" viewBox="0 0 40 39" fill="none" xmlns="http://www.w3.org/2000/svg">
<path d="M28.4856 9.34473C29.1381 8.68383 29.7735 8.04834 30.4006 7.39591C30.4683 7.32812 30.5107 7.20102 30.5192 7.09935C30.5361 6.92141 30.4938 6.72653 30.5276 6.54859C30.6886 5.76906 30.2989 5.33693 29.6803 4.91327C26.3843 2.67636 22.7662 1.56637 18.7839 1.71042C11.0055 1.99851 4.15919 7.54842 2.26967 15.0895C0.193748 23.3678 4.14224 31.8071 11.8359 35.5437C19.199 39.1279 28.3331 37.0265 33.3916 30.5954C36.3911 26.774 37.662 22.4442 37.196 17.6145C36.9503 15.0641 36.1284 12.6916 34.8151 10.4886C34.6625 10.2344 34.6541 10.0819 34.8829 9.88702C35.1794 9.63282 35.4506 9.33626 35.7302 9.05665C35.7556 9.03123 35.798 9.00581 35.8318 8.98039C39.7634 14.4879 40.7802 24.3168 34.5439 31.8664C27.9264 39.8735 16.6486 41.153 8.52286 35.5776C-0.162125 29.621 -2.50919 18.1229 2.87127 9.37863C5.89618 4.46419 10.2937 1.39691 15.9962 0.34624C21.6901 -0.704432 26.8503 0.659747 31.4936 4.1168C32.5612 3.0407 33.6119 1.98156 34.7388 0.846156C34.7388 2.02393 34.7388 3.10002 34.7388 4.22695C35.8657 4.22695 36.9588 4.22695 38.0433 4.22695C38.0603 4.26084 38.0857 4.3032 38.1026 4.3371C37.679 4.74381 37.2553 5.15052 36.8401 5.55723C35.9505 6.44691 35.0693 7.34507 34.1626 8.2178C34.0186 8.35337 33.7813 8.44658 33.5865 8.46352C33.1374 8.49742 32.6798 8.49742 32.2308 8.472C31.8834 8.45505 31.6292 8.55673 31.375 8.81092C28.0704 12.1324 24.749 15.4454 21.436 18.7584C21.258 18.9363 21.1648 19.1058 21.1902 19.377C21.258 20.3429 20.5208 21.1563 19.5803 21.1817C18.5974 21.2072 17.801 20.4361 17.8179 19.4702C17.8349 18.4957 18.6313 17.7501 19.6227 17.8094C19.8938 17.8264 20.0633 17.7416 20.2412 17.5637C21.1563 16.6401 22.0714 15.725 23.0374 14.7676C22.3849 14.2422 21.6647 13.9118 20.8852 13.7338C17.6484 12.9882 14.471 14.9624 13.7423 18.1653C13.0052 21.4105 15.0048 24.5541 18.267 25.2912C22.5968 26.2656 26.486 22.1053 25.1896 17.8603C25.1048 17.5891 25.1557 17.4281 25.3505 17.2417C25.681 16.9197 25.986 16.5639 26.3165 16.208C27.6807 18.6398 27.4688 22.6052 24.6219 25.1641C21.6901 27.7993 17.3773 27.7908 14.3948 25.1472C11.6071 22.6815 11.1072 18.3432 13.1831 15.2336C15.2421 12.1493 20.2158 10.3785 24.249 13.4881C25.2404 12.5052 26.2233 11.5223 27.2062 10.5394C23.4271 7.06545 16.8011 6.34524 11.9206 10.4039C7.10784 14.4032 6.26053 21.3936 9.94635 26.4944C13.5474 31.4766 20.487 32.8323 25.7403 29.5956C31.0445 26.3165 33.2475 19.1312 29.5532 13.1577C29.9515 12.7594 30.3497 12.3612 30.7395 11.9714C33.9084 16.2758 34.2982 23.783 29.1635 29.0194C24.0796 34.2135 15.8182 34.4168 10.37 29.4939C5.0065 24.6388 4.45575 16.352 9.12445 10.7936C13.8355 5.16747 22.4104 4.10832 28.4856 9.34473Z" fill="#F19515"/>
</svg>
