<svg width="40" height="40" viewBox="0 0 40 40" fill="none" xmlns="http://www.w3.org/2000/svg">
<path d="M18.4179 39.0033C17.8306 38.9271 17.2433 38.8662 16.6561 38.7824C13.9333 38.4014 11.4241 37.4566 9.1132 35.9937C5.98622 34.0127 3.59904 31.3612 1.95928 28.0467C0.97543 26.081 0.304274 24.0161 0.128858 21.8294C0.0144566 20.435 -0.0618111 19.0102 0.067844 17.6235C0.403422 13.8977 1.76099 10.5451 4.06427 7.58885C6.33705 4.66303 9.20472 2.54486 12.6596 1.23433C14.1316 0.67812 15.6417 0.297154 17.2128 0.144767C17.617 0.106671 18.0136 0.045716 18.4102 0C19.0204 0 19.6305 0 20.2407 0C20.9042 0.0761933 21.5753 0.144767 22.2389 0.22096C23.7185 0.396205 25.137 0.800029 26.5251 1.33338C28.2488 1.99626 29.8504 2.88773 31.3224 3.99253C31.5512 4.16777 31.7342 4.46493 31.8257 4.74684C31.9325 5.10495 31.8105 5.47068 31.4596 5.66116C31.0859 5.86688 30.6817 5.88974 30.308 5.6383C29.5911 5.1659 28.897 4.64779 28.1496 4.22111C26.1895 3.10107 24.0769 2.40771 21.827 2.11817C20.4695 1.94293 19.1195 1.92007 17.762 2.04198C15.0087 2.30104 12.4537 3.16964 10.1352 4.67065C5.97859 7.35265 3.34736 11.1242 2.28724 15.9549C1.86014 17.8902 1.82963 19.8483 2.08894 21.8141C2.53129 25.159 3.8431 28.1382 6.00147 30.7135C8.67847 33.906 12.08 35.9251 16.1908 36.7328C17.9603 37.0833 19.7449 37.1518 21.5296 36.9385C24.8701 36.5423 27.8827 35.2927 30.491 33.1593C33.9383 30.3554 36.0662 26.7591 36.8136 22.378C37.4085 18.8731 36.9128 15.4977 35.4866 12.2595C35.2349 11.6804 34.9222 11.1318 34.6476 10.568C34.3731 10.0194 34.5332 9.37939 34.9985 9.13557C35.479 8.89176 36.0967 9.11272 36.3865 9.64607C37.645 11.9395 38.5068 14.3701 38.85 16.9606C39.1093 18.9036 39.0712 20.8465 38.7356 22.7894C38.2246 25.7381 37.1035 28.4277 35.3493 30.8507C32.4359 34.866 28.5462 37.4338 23.7108 38.5462C22.788 38.7595 21.8347 38.8205 20.8966 38.95C20.7822 38.9652 20.6754 38.9957 20.5686 39.0186C19.8441 39.0033 19.1272 39.0033 18.4179 39.0033Z" fill="#333333"/>
<path d="M19.4176 27.7953C18.8914 27.2772 18.3575 26.7667 17.8465 26.2409C17.5262 25.9133 17.4652 25.4562 17.6635 25.0904C17.8694 24.7095 18.2202 24.519 18.6855 24.6104C18.8838 24.6485 19.0897 24.7704 19.2346 24.9076C20.0888 25.7381 20.9201 26.5914 21.7743 27.4296C21.9726 27.62 22.1861 27.8029 22.4073 27.9629C22.9946 28.382 23.0861 29.0372 22.5751 29.5554C21.515 30.6373 20.4472 31.704 19.3642 32.7631C19.0744 33.045 18.7007 33.205 18.2889 33.106C17.5796 32.9307 17.305 32.1078 17.7855 31.5516C18.1592 31.1173 18.5787 30.7287 18.9829 30.3249C19.1278 30.1878 19.2956 30.0735 19.4558 29.9516C19.4329 29.9135 19.41 29.883 19.3795 29.8449C18.9066 29.7992 18.4261 29.7687 17.9609 29.7001C15.9703 29.4106 14.2162 28.5877 12.7061 27.2543C10.9748 25.7228 9.86128 23.818 9.44181 21.5703C8.86218 18.4921 9.46469 15.6272 11.4095 13.1281C13.0874 10.9718 15.2992 9.67653 18.0219 9.28033C23.0022 8.54887 27.5783 11.5814 29.1494 16.1072C29.5155 17.1663 29.7061 18.2559 29.7138 19.3759C29.7214 20.1302 29.3934 20.4198 28.7757 20.4579C28.3333 20.4884 27.7918 20.1607 27.7766 19.4521C27.7156 17.0978 26.869 15.0634 25.1682 13.41C22.2777 10.5985 17.6864 10.3394 14.4831 12.7852C12.7976 14.0729 11.7375 15.7644 11.3409 17.8216C10.4638 22.3627 13.2628 26.6752 17.7702 27.6962C18.2965 27.8181 18.838 27.841 19.3719 27.9096C19.3947 27.8715 19.4024 27.8334 19.4176 27.7953Z" fill="#333333"/>
</svg>
