<svg width="21" height="19" viewBox="0 0 21 19" fill="none" xmlns="http://www.w3.org/2000/svg">
<path d="M16.1965 15.7825C16.6015 16.2938 16.7819 16.8574 16.6296 17.5055C16.5333 17.9242 16.3128 18.2744 15.984 18.5401C15.2542 19.1319 14.308 19.1319 13.5742 18.5441C13.1532 18.206 12.9166 17.7511 12.8765 17.2117C12.8324 16.6762 13.0168 16.2012 13.3897 15.7544C11.9342 15.7544 10.5268 15.7544 9.09136 15.7544C9.80509 16.8332 9.77301 17.8276 8.73049 18.6367C8.06088 19.156 7.22286 19.0836 6.5773 18.6408C6.10817 18.3187 5.83952 17.8638 5.77135 17.2922C5.70319 16.7246 5.89164 16.2294 6.27657 15.7342C6.06807 15.7342 5.92372 15.7383 5.78338 15.7342C5.33831 15.7262 5.12178 15.4122 5.27014 14.9895C5.47464 14.4098 5.68314 13.8301 5.88763 13.2504C5.90768 13.19 5.92372 13.1296 5.95179 13.0371C5.84353 13.0371 5.76333 13.0371 5.68715 13.0371C5.30623 13.033 5.06164 12.8317 4.99348 12.4533C4.71681 10.9357 4.44415 9.41398 4.16748 7.89631C3.85874 6.21359 3.54598 4.53489 3.23724 2.85217C3.23323 2.82399 3.22521 2.79984 3.2212 2.77166C3.13299 2.2282 3.12898 2.23625 2.62777 2.04704C1.90602 1.7733 1.18829 1.48345 0.470561 1.20166C0.201912 1.09699 0.0615736 0.887655 0.00543817 0.630014C-0.0466876 0.380424 0.286116 0.0181154 0.566793 0.00201282C0.683073 -0.00603847 0.811383 0.0100641 0.919644 0.0503206C1.8539 0.408603 2.78013 0.782988 3.71038 1.14127C4.03917 1.27009 4.24367 1.46735 4.30782 1.84173C4.54439 3.2185 4.80502 4.59125 5.05763 5.964C5.33831 7.49777 5.61497 9.03154 5.89565 10.5613C5.96783 10.9638 6.04401 11.3624 6.1242 11.7851C6.21242 11.7851 6.2886 11.7851 6.36478 11.7851C9.58856 11.7851 12.8164 11.7851 16.0401 11.7851C16.3689 11.7851 16.3649 11.7851 16.4652 11.4751C16.7418 10.6176 17.0225 9.76018 17.2992 8.89869C17.7483 7.49777 18.1893 6.09684 18.6384 4.69994C18.6825 4.5671 18.6504 4.53489 18.5221 4.53087C17.9608 4.51476 17.4034 4.49061 16.8421 4.46646C15.8156 4.42217 14.7931 4.37387 13.7666 4.32556C13.2895 4.30543 12.8083 4.2853 12.3312 4.26517C11.1082 4.21284 9.88127 4.16051 8.65832 4.10817C8.10899 4.08402 7.55566 4.05584 7.00633 4.03169C6.67353 4.01558 6.38884 3.73379 6.38884 3.41576C6.38884 3.07761 6.66952 2.79581 7.02237 2.80386C7.87643 2.82802 8.72648 2.86827 9.58054 2.9045C10.0737 2.92463 10.5669 2.94879 11.0561 2.97294C12.3272 3.0293 13.6022 3.08163 14.8733 3.13397C16.2326 3.19033 17.5919 3.24266 18.9512 3.30304C19.1877 3.31512 19.4323 3.32317 19.6609 3.37551C20.0498 3.46407 20.2102 3.82235 20.0899 4.19271C19.7531 5.21925 19.4323 6.25384 19.1035 7.28441C18.891 7.95267 18.6745 8.62092 18.458 9.28918C18.1372 10.2875 17.8204 11.2859 17.4997 12.2843C17.4676 12.3809 17.4395 12.4775 17.4034 12.5701C17.2711 12.8921 17.0786 13.025 16.7258 13.025C13.5982 13.025 10.4707 13.025 7.34315 13.025C7.02237 13.025 7.02638 13.025 6.92213 13.3229C6.76976 13.7657 6.61338 14.2045 6.44498 14.6755C6.5372 14.6835 6.60937 14.6916 6.68556 14.6916C9.98151 14.6916 13.2735 14.6916 16.5694 14.6956C16.6817 14.6956 16.794 14.7077 16.9062 14.7278C17.1749 14.7802 17.3393 14.9935 17.3232 15.2592C17.3072 15.5128 17.1027 15.7141 16.834 15.7222C16.6296 15.7302 16.4251 15.7222 16.2166 15.7222C16.2166 15.7463 16.2045 15.7624 16.1965 15.7825ZM15.6632 17.0708C15.6753 16.5957 15.2743 16.1811 14.8011 16.173C14.3039 16.165 13.8909 16.5635 13.8829 17.0627C13.8749 17.5337 14.2799 17.9483 14.753 17.9564C15.2502 17.9685 15.6512 17.578 15.6632 17.0708ZM6.77778 17.0748C6.77778 17.5538 7.17875 17.9564 7.6559 17.9564C8.14107 17.9604 8.54605 17.5498 8.54204 17.0627C8.54204 16.5796 8.13706 16.169 7.67194 16.173C7.16672 16.1771 6.77778 16.5756 6.77778 17.0748Z" fill="#333333"/>
</svg>
