<svg width="45" height="45" viewBox="0 0 45 45" fill="none" xmlns="http://www.w3.org/2000/svg">
<rect width="45" height="45" rx="22.5" fill="white" fill-opacity="0.4"/>
<rect x="6" y="6" width="33" height="33" rx="16.5" fill="white" fill-opacity="0.65"/>
<path d="M20.5573 32.7454C20.2549 32.6934 19.9397 32.6631 19.6458 32.5808C17.6311 32.009 16.3959 30.6664 15.9359 28.6003C15.8464 28.2062 15.8464 27.7861 15.8379 27.3746C15.8251 26.6253 15.8379 25.8716 15.8336 25.1223C15.8294 24.4423 16.1105 23.9442 16.6983 23.6021C17.8441 22.935 18.9813 22.2507 20.1271 21.5794C20.6766 21.2588 21.4348 21.3541 21.9033 21.7959C21.9417 21.8349 21.98 21.8739 22.0609 21.9475C22.0609 21.7613 22.0609 21.6227 22.0609 21.4797C22.0609 20.5225 22.0567 19.561 22.0609 18.6038C22.0609 18.058 22.2313 17.5816 22.67 17.2438C23.1471 16.8713 23.6838 16.7976 24.229 17.0359C24.7784 17.2784 25.132 17.7159 25.1575 18.3439C25.1874 19.1149 25.1746 19.8858 25.1788 20.6611C25.1788 22.4283 25.1788 24.1954 25.1788 26.0146C25.2598 25.9366 25.3109 25.889 25.362 25.837C25.7581 25.4255 26.1585 25.0141 26.6995 24.7932C27.6962 24.3817 28.6588 24.4597 29.5831 25.0184C29.8855 25.2046 29.9409 25.6031 29.7194 25.8803C29.6896 25.9193 29.6512 25.9539 29.6172 25.9886C27.9006 27.7341 26.1883 29.4796 24.4675 31.2208C23.8456 31.8488 23.113 32.3036 22.2654 32.5375C21.9331 32.6284 21.5881 32.6717 21.2516 32.741C21.0131 32.7454 20.7831 32.7454 20.5573 32.7454ZM22.8489 24.1261C22.8276 24.1391 22.8106 24.1521 22.7893 24.1695C22.7722 24.1391 22.7637 24.1002 22.7382 24.0742C22.3378 23.5717 21.9331 23.0693 21.5328 22.5626C21.2005 22.1424 20.8555 22.0645 20.3997 22.333C19.3051 22.9784 18.2189 23.6324 17.12 24.2691C16.7579 24.477 16.6046 24.7715 16.6088 25.1873C16.6174 25.9669 16.6046 26.7466 16.6131 27.5262C16.6174 28.1542 16.7068 28.7736 16.9752 29.3497C17.6268 30.766 18.696 31.6409 20.2251 31.8878C21.6137 32.113 22.8319 31.7145 23.8286 30.727C25.5068 29.0638 27.1467 27.3659 28.8036 25.6811C28.842 25.6421 28.8718 25.5988 28.9186 25.5381C27.9901 25.1873 27.1424 25.2523 26.397 25.915C26.0137 26.2571 25.6644 26.6383 25.3024 27.0064C25.1618 27.1494 25.017 27.197 24.8253 27.0974C24.4845 26.9155 24.3866 26.608 24.3866 26.2528C24.3866 23.667 24.3866 21.0856 24.3866 18.4998C24.3866 18.0494 24.0629 17.7115 23.6327 17.7072C23.1939 17.7029 22.8617 18.0147 22.8489 18.4652C22.8404 18.8637 22.8447 19.2578 22.8447 19.6563C22.8489 21.1419 22.8489 22.6362 22.8489 24.1261Z" fill="black" fill-opacity="0.4"/>
<path d="M17.4053 18.855C17.4053 18.5951 17.4053 18.3439 17.4053 18.0797C18.4275 18.0797 19.4498 18.0797 20.4934 18.0797C20.4934 18.3266 20.4934 18.5821 20.4934 18.855C19.4754 18.855 18.4446 18.855 17.4053 18.855Z" fill="black" fill-opacity="0.4"/>
<path d="M21.6482 15.979C21.4864 16.1393 21.3117 16.3169 21.1499 16.4858C20.4257 15.7495 19.7016 15.0088 18.9775 14.2769C19.1394 14.1166 19.3183 13.9347 19.4802 13.7744C20.183 14.4891 20.9071 15.2254 21.6482 15.979Z" fill="black" fill-opacity="0.4"/>
<path d="M23.245 12.1372C23.5048 12.1372 23.7433 12.1372 23.9947 12.1372C23.9947 13.1897 23.9947 14.2292 23.9947 15.2817C23.7433 15.2817 23.5006 15.2817 23.245 15.2817C23.245 14.2379 23.245 13.194 23.245 12.1372Z" fill="black" fill-opacity="0.4"/>
<path d="M29.843 18.855C29.843 18.5951 29.843 18.3439 29.843 18.0797C28.8207 18.0797 27.7984 18.0797 26.7549 18.0797C26.7549 18.3266 26.7549 18.5821 26.7549 18.855C27.7771 18.855 28.8079 18.855 29.843 18.855Z" fill="black" fill-opacity="0.4"/>
<path d="M25.6045 15.979C25.7664 16.1393 25.941 16.3169 26.1028 16.4858C26.827 15.7495 27.5511 15.0088 28.2752 14.2769C28.1133 14.1166 27.9344 13.9347 27.7725 13.7744C27.0697 14.4891 26.3456 15.2254 25.6045 15.979Z" fill="black" fill-opacity="0.4"/>
</svg>
