<svg width="61" height="61" viewBox="0 0 61 61" fill="none" xmlns="http://www.w3.org/2000/svg">
<g filter="url(#filter0_d)">
<rect x="16" y="12" width="31" height="31" rx="2" fill="white"/>
</g>
<g clip-path="url(#clip0)">
<path d="M23 33.386C23.6233 32.4404 24.2183 31.4713 24.8813 30.5612C25.2667 30.0293 25.4933 29.4916 25.4197 28.8356C25.3913 28.5756 25.4763 28.4278 25.737 28.3451C26.4057 28.1383 26.927 27.7482 27.3973 27.1632C28.5873 25.6799 30.1457 25.0298 32.0213 25.2071C33.54 25.349 34.747 26.0817 35.6877 27.2932C36.0277 27.7305 36.4073 28.0319 36.9117 28.2151C37.5747 28.4574 37.5747 28.481 37.5577 29.2315C37.552 29.6098 37.637 29.923 37.8637 30.2362C38.4077 30.9749 38.929 31.7431 39.439 32.5113C39.6543 32.8423 39.813 33.2146 39.9943 33.5632C39.9943 33.6401 39.9943 33.7228 39.9943 33.7996C39.8753 34.5265 39.3993 34.8988 38.776 35.1352C38.521 35.2297 38.2773 35.3775 38.0167 35.4484C37.637 35.5489 37.4897 35.7675 37.5633 36.1635C37.6087 36.3998 37.501 36.5062 37.2913 36.5889C36.2033 37.0262 35.1153 37.4872 34.033 37.9422C33.2057 38.2909 32.3783 38.6514 31.551 39.006C31.4943 39.006 31.4377 39.006 31.381 39.006C31.313 38.9646 31.245 38.9114 31.1713 38.8819C29.426 38.1491 27.675 37.4222 25.9297 36.6953C25.4027 36.4767 25.397 36.4826 25.4027 35.8975C25.4027 35.7084 25.3517 35.6139 25.1817 35.5548C24.836 35.4248 24.5073 35.2534 24.1617 35.1234C23.612 34.9224 23.1813 34.5915 23 33.9887C23 33.7819 23 33.5869 23 33.386ZM26.2073 29.4029C26.1903 29.462 26.1733 29.4857 26.1733 29.5152C26.162 30.6262 26.145 31.7372 26.145 32.8482C26.145 32.9309 26.264 33.055 26.3547 33.0964C26.791 33.3091 27.2557 33.4628 27.6693 33.7051C28.5137 34.1956 28.5817 35.3361 27.811 35.9389C27.59 36.1103 27.301 36.1812 27.029 36.3053C28.3663 36.8667 29.7207 37.4399 31.0977 38.0191C31.1033 37.9009 31.1147 37.8418 31.1147 37.7827C31.1147 35.738 31.1147 33.6933 31.1203 31.6426C31.1203 31.4417 31.0127 31.4004 30.8823 31.3413C29.7433 30.8685 28.61 30.3898 27.471 29.9171C27.0517 29.7457 26.6323 29.5743 26.2073 29.4029ZM31.84 38.0309C33.285 37.4281 34.6563 36.8549 36.005 36.2935C35.7273 36.1812 35.4213 36.128 35.1947 35.9625C34.356 35.3479 34.458 34.1424 35.3873 33.646C35.7783 33.4332 36.1977 33.2737 36.6113 33.1082C36.7983 33.0314 36.8663 32.925 36.8663 32.7182C36.8607 31.7549 36.872 30.7917 36.872 29.8225C36.872 29.6866 36.8493 29.5566 36.8323 29.3616C36.4017 29.5388 36.022 29.7161 35.6197 29.852C35.291 29.9584 35.1097 30.1239 35.155 30.5139C35.1777 30.7267 35.1493 30.9453 35.1323 31.164C35.1267 31.2408 35.087 31.3472 35.0303 31.3708C34.7413 31.5067 34.441 31.619 34.1067 31.7549C34.1067 31.3235 34.1067 30.9394 34.1067 30.5257C33.9933 30.5671 33.9083 30.5907 33.8347 30.6203C33.2453 30.8626 32.6673 31.1167 32.0723 31.3472C31.8853 31.4181 31.8457 31.5245 31.8457 31.7136C31.8513 33.1969 31.8457 34.6861 31.8457 36.1694C31.84 36.7721 31.84 37.369 31.84 38.0309ZM26.7967 28.7411C26.7967 28.7647 26.8023 28.7942 26.8023 28.8179C28.3267 29.4561 29.8453 30.0943 31.3697 30.7267C31.4263 30.7503 31.5057 30.768 31.5567 30.7444C32.146 30.5021 32.7353 30.2539 33.336 30.0057C33.2963 29.9584 33.2907 29.9348 33.2737 29.9289C31.7607 29.2906 30.2477 28.6583 28.7347 28.026C28.678 28.0024 28.5987 27.9905 28.542 28.0142C27.9583 28.2446 27.3747 28.4928 26.7967 28.7411ZM30.0833 27.3582C30.1967 27.4232 30.2533 27.4587 30.31 27.4823C31.7663 28.0969 33.2283 28.7174 34.6847 29.332C34.7357 29.3556 34.8037 29.3911 34.8433 29.3734C35.3023 29.1902 35.7557 28.9952 36.277 28.7765C34.696 28.1205 33.2 27.5 31.704 26.8795C31.6133 26.8441 31.4943 26.7909 31.4093 26.8204C30.9843 26.9741 30.5593 27.1573 30.0833 27.3582Z" fill="#5D5D5D"/>
<path d="M35.4215 20.1429C35.6198 21.9985 33.8915 24.256 31.5625 24.2974C29.3865 24.3387 27.4995 22.4063 27.5222 20.1488C27.5448 17.9032 29.2732 16.0476 31.3528 15.9944C33.7668 15.9412 35.5858 18.116 35.4215 20.1429Z" fill="#5D5D5D"/>
</g>
<defs>
<filter id="filter0_d" x="0" y="0" width="61" height="61" filterUnits="userSpaceOnUse" color-interpolation-filters="sRGB">
<feFlood flood-opacity="0" result="BackgroundImageFix"/>
<feColorMatrix in="SourceAlpha" type="matrix" values="0 0 0 0 0 0 0 0 0 0 0 0 0 0 0 0 0 0 127 0"/>
<feOffset dx="-1" dy="3"/>
<feGaussianBlur stdDeviation="7.5"/>
<feColorMatrix type="matrix" values="0 0 0 0 0.2 0 0 0 0 0.2 0 0 0 0 0.2 0 0 0 0.15 0"/>
<feBlend mode="normal" in2="BackgroundImageFix" result="effect1_dropShadow"/>
<feBlend mode="normal" in="SourceGraphic" in2="effect1_dropShadow" result="shape"/>
</filter>
<clipPath id="clip0">
<rect width="17" height="23" fill="white" transform="translate(23 16)"/>
</clipPath>
</defs>
</svg>
