<svg width="61" height="61" viewBox="0 0 61 61" fill="none" xmlns="http://www.w3.org/2000/svg">
<g filter="url(#filter0_d)">
<rect x="16" y="12" width="31" height="31" rx="2" fill="white"/>
</g>
<path d="M28.2278 30.2007C26.8271 30.2007 25.4265 30.2007 24.0222 30.2007C23.693 30.2007 23.6382 30.146 23.6382 29.8247C23.6382 27.3426 23.6455 24.8605 23.6309 22.3821C23.6309 21.893 24.0185 21.5316 24.472 21.5352C26.9771 21.5498 29.4822 21.5498 31.9836 21.5352C32.4444 21.5316 32.8247 21.9076 32.8211 22.3784C32.8064 24.8642 32.8137 27.3536 32.8137 29.8393C32.8137 30.1387 32.7552 30.1971 32.448 30.1971C31.0437 30.2007 29.6358 30.2007 28.2278 30.2007Z" fill="#5D5D5D"/>
<path d="M29.6133 30.9818C30.9591 30.9818 32.25 30.9818 33.5629 30.9818C33.5629 30.8796 33.5629 30.8029 33.5629 30.7226C33.5629 28.4121 33.5629 26.1015 33.5629 23.791C33.5629 23.2982 33.7385 23.1266 34.2358 23.1266C34.9563 23.1266 35.673 23.1266 36.3935 23.1266C37.198 23.1266 37.8197 23.4515 38.2659 24.1268C38.7486 24.8568 39.2387 25.5796 39.736 26.3023C39.9957 26.6819 40.12 27.098 40.12 27.5506C40.12 28.6165 40.12 29.6787 40.12 30.7445C40.12 30.8175 40.12 30.8869 40.12 30.9818C40.3212 30.9818 40.504 30.9818 40.6832 30.9818C40.91 30.9854 40.9941 31.0657 40.9977 31.2884C41.0014 31.5147 41.0014 31.7374 40.9977 31.9637C40.9941 32.1754 40.9063 32.2593 40.6905 32.2593C40.0615 32.263 39.4362 32.2593 38.8071 32.2593C38.7194 32.2593 38.6609 32.252 38.6389 32.1425C38.4451 31.1497 37.5747 30.4489 36.5654 30.4562C35.4682 30.4635 34.6564 31.2628 34.4955 32.1973C34.4918 32.2155 34.4845 32.2301 34.4772 32.2484C33.0875 32.2484 31.7015 32.2484 30.3081 32.2484C30.2167 31.7666 29.9973 31.3541 29.6133 30.9818ZM36.5763 26.8024C37.0993 26.8024 37.6223 26.8097 38.1489 26.7951C38.2366 26.7914 38.361 26.733 38.3976 26.6636C38.4378 26.5943 38.4232 26.4556 38.3756 26.3862C37.9843 25.8095 37.582 25.2364 37.1688 24.6707C37.1103 24.5904 36.9823 24.5247 36.8835 24.5247C36.2618 24.5101 35.6401 24.5174 35.0184 24.521C34.8209 24.521 34.7185 24.6269 34.7185 24.8276C34.7149 25.3824 34.7185 25.9336 34.7185 26.4884C34.7185 26.7147 34.81 26.8024 35.044 26.8024C35.556 26.8024 36.068 26.8024 36.5763 26.8024Z" fill="#5D5D5D"/>
<path d="M28.2264 30.9782C29.1041 30.9819 29.8136 31.6973 29.8099 32.5733C29.8026 33.453 29.0785 34.1648 28.1972 34.1612C27.3304 34.1575 26.6063 33.4238 26.6173 32.5587C26.6246 31.6718 27.3341 30.9746 28.2264 30.9782ZM27.4072 32.577C27.4109 33.0114 27.7803 33.3727 28.2154 33.3691C28.6543 33.3654 29.0163 33.0004 29.0127 32.566C29.0127 32.1353 28.6433 31.763 28.2118 31.763C27.7766 31.7594 27.4072 32.1353 27.4072 32.577Z" fill="#5D5D5D"/>
<path d="M38.1669 32.6281C38.1157 33.5334 37.3807 34.205 36.4883 34.1648C35.6106 34.1247 34.9377 33.3581 34.9853 32.4566C35.0328 31.5951 35.7898 30.9344 36.6785 30.9819C37.5306 31.0257 38.2145 31.7813 38.1669 32.6281ZM35.7752 32.5697C35.7752 33.015 36.1299 33.3691 36.5724 33.3691C37.0113 33.3691 37.377 33.0004 37.3733 32.5661C37.3733 32.1317 36.9967 31.7594 36.5688 31.763C36.1373 31.763 35.7752 32.128 35.7752 32.5697Z" fill="#5D5D5D"/>
<path d="M26.7933 31.0074C26.4203 31.3542 26.2082 31.7703 26.1131 32.2594C26.0546 32.2594 25.9997 32.2594 25.9449 32.2594C25.0781 32.2594 24.2151 32.2594 23.3483 32.2594C23.0777 32.2594 23.0046 32.1864 23.0009 31.9126C23.0009 31.6863 22.9973 31.4637 23.0046 31.2374C23.0082 31.0804 23.0923 30.9818 23.2533 30.9818C24.4089 30.9782 25.5682 30.9818 26.7238 30.9818C26.7384 30.9818 26.7494 30.9928 26.7933 31.0074Z" fill="#5D5D5D"/>
<defs>
<filter id="filter0_d" x="0" y="0" width="61" height="61" filterUnits="userSpaceOnUse" color-interpolation-filters="sRGB">
<feFlood flood-opacity="0" result="BackgroundImageFix"/>
<feColorMatrix in="SourceAlpha" type="matrix" values="0 0 0 0 0 0 0 0 0 0 0 0 0 0 0 0 0 0 127 0"/>
<feOffset dx="-1" dy="3"/>
<feGaussianBlur stdDeviation="7.5"/>
<feColorMatrix type="matrix" values="0 0 0 0 0.2 0 0 0 0 0.2 0 0 0 0 0.2 0 0 0 0.15 0"/>
<feBlend mode="normal" in2="BackgroundImageFix" result="effect1_dropShadow"/>
<feBlend mode="normal" in="SourceGraphic" in2="effect1_dropShadow" result="shape"/>
</filter>
</defs>
</svg>
