<svg width="22" height="17" viewBox="0 0 22 17" fill="none" xmlns="http://www.w3.org/2000/svg">
<path d="M0 4.19602C0.078257 3.90534 0.146732 3.60496 0.234771 3.32396C1.3108 -0.0770763 5.71276 -1.13324 8.25611 1.40543C8.51045 1.65736 8.755 1.75425 9.10716 1.75425C10.1343 1.73487 11.1614 1.74456 12.1787 1.74456C13.1765 1.75425 13.6069 2.18059 13.6265 3.15924C13.6265 3.41117 13.6265 3.67279 13.6265 3.91503C14.8199 3.91503 15.9742 3.95378 17.1285 3.90534C18.0578 3.86658 18.7817 4.20571 19.3393 4.90336C20.0436 5.78511 20.7381 6.68624 21.3837 7.60675C21.6576 8.00402 21.8044 8.49819 22 8.9536C22 10.5718 22 12.1802 22 13.7984C21.5892 14.8255 20.7088 14.8739 19.7697 14.7867C19.5056 15.9979 18.723 16.6665 17.598 16.9959C17.3046 16.9959 17.0111 16.9959 16.7177 16.9959C15.5927 16.6665 14.8101 15.9979 14.5656 14.9127C14.1156 14.7867 13.7341 14.6704 13.3526 14.5736C13.2743 14.5542 13.1765 14.5736 13.0983 14.5832C12.7559 14.6511 12.4135 14.777 12.0711 14.7867C10.8386 14.8158 9.59626 14.7964 8.38328 14.7964C7.75723 16.2692 7.57137 16.4533 6.16274 16.9959C5.86928 16.9959 5.57581 16.9959 5.28235 16.9959C4.14762 16.6665 3.37483 15.9882 3.10093 14.7964C2.88573 14.7964 2.69008 14.7964 2.49444 14.7964C1.38906 14.7867 0.880391 14.2926 0.880391 13.2073C0.880391 11.4438 0.880391 9.69001 0.880391 7.92651C0.880391 7.77147 0.870609 7.59706 0.821699 7.45172C0.557581 6.75407 0.2739 6.05642 0 5.35877C0 4.97119 0 4.58361 0 4.19602ZM1.76078 8.51757C1.76078 10.0098 1.76078 11.4341 1.76078 12.8488C1.76078 13.9244 1.83904 13.9922 2.93464 13.9437C2.98355 13.9437 3.03246 13.9244 3.10093 13.9147C3.48244 12.6066 4.3237 11.7636 5.75189 11.7733C7.15073 11.783 7.98221 12.6163 8.36372 13.9437C9.69409 13.9437 11.0049 13.9631 12.3255 13.9244C12.482 13.9244 12.7755 13.6434 12.7755 13.4883C12.8048 10.0195 12.8048 6.5409 12.7755 3.07203C12.7755 2.90731 12.5113 2.60693 12.3548 2.60693C11.3179 2.56818 10.281 2.58756 9.29302 2.58756C9.42997 3.34334 9.67452 4.06037 9.65496 4.7774C9.63539 5.49443 9.4691 6.26959 9.14629 6.9091C8.82348 7.54861 8.31481 8.17844 7.72788 8.59509C5.78124 9.99039 3.78568 9.85473 1.76078 8.51757ZM8.80391 4.79678C8.80391 2.61662 7.01378 0.833743 4.83237 0.843433C2.65096 0.862812 0.890173 2.61662 0.880391 4.76771C0.880391 6.94786 2.66074 8.72105 4.85193 8.71136C7.02357 8.70167 8.79413 6.94786 8.80391 4.79678ZM18.8697 5.64946C18.4393 5.17467 18.1067 4.7774 17.5198 4.7774C16.4242 4.7774 15.3384 4.7774 14.2428 4.7774C13.8613 4.7774 13.6558 4.94212 13.6558 5.3297C13.6558 8.01371 13.6558 10.688 13.6558 13.372C13.6558 13.6918 13.8026 13.8856 14.1254 13.9534C14.4873 14.0309 14.5851 13.8371 14.6928 13.5368C15.3384 11.7345 17.5491 11.1628 18.948 12.4709C19.3588 12.8488 19.5936 13.4108 19.9458 13.9534C20.0925 13.9534 20.3762 14.0116 20.6109 13.934C20.8164 13.8662 21.1098 13.6434 21.1196 13.4786C21.1685 12.3353 21.1392 11.2016 21.1392 10.0195C20.924 10.0195 20.7675 10.0195 20.6012 10.0195C19.3588 10.0195 18.1263 10.0195 16.8839 10.0195C16.0036 10.0195 15.446 9.47684 15.4264 8.60478C15.4166 8.10092 15.4166 7.60675 15.4264 7.10289C15.446 6.18239 15.9644 5.66884 16.8937 5.65915C17.5002 5.64946 18.1165 5.64946 18.8697 5.64946ZM21.0805 9.1377C21.0805 9.06019 21.1 9.00205 21.0805 8.96329C20.5816 8.17844 20.0925 7.39358 19.574 6.61842C19.5251 6.5409 19.3393 6.53121 19.2219 6.52152C18.4393 6.51183 17.6567 6.52152 16.8742 6.51183C16.4633 6.50214 16.2677 6.70562 16.2579 7.0932C16.2481 7.57768 16.2481 8.06216 16.2579 8.54664C16.2677 8.87609 16.4046 9.12801 16.7763 9.12801C18.2143 9.14739 19.6425 9.1377 21.0805 9.1377ZM5.71276 16.1142C6.68119 16.1142 7.50289 15.31 7.50289 14.3701C7.50289 13.4205 6.68119 12.6259 5.71276 12.6259C4.7639 12.6259 3.97154 13.4108 3.95198 14.341C3.93241 15.3003 4.74433 16.1142 5.71276 16.1142ZM17.1383 16.1142C18.1165 16.1239 18.9284 15.339 18.9382 14.3895C18.948 13.4593 18.1556 12.655 17.2165 12.6356C16.2188 12.6163 15.3873 13.4108 15.3971 14.3895C15.4068 15.3196 16.1992 16.1045 17.1383 16.1142Z" fill="#333333"/>
<path d="M4.40198 2.9268C4.40198 2.60705 4.40198 2.2776 4.40198 1.95785C4.3922 1.63809 4.46068 1.32803 4.8324 1.31834C5.20412 1.30865 5.28238 1.61871 5.28238 1.93847C5.27259 2.49077 5.26281 3.03339 5.29216 3.58569C5.31172 3.89576 5.38998 4.20583 5.46824 4.5062C5.56606 4.87441 5.50736 5.16509 5.15521 5.38795C4.7737 5.63988 4.40198 5.9015 4.04005 6.19219C3.78571 6.39567 3.54116 6.72511 3.21835 6.37629C2.9151 6.04684 3.22813 5.8046 3.44334 5.56237C3.70745 5.2523 4.04004 4.94223 4.16721 4.57403C4.35307 4.06048 4.38242 3.49849 4.49002 2.95587C4.46068 2.93649 4.43133 2.93649 4.40198 2.9268Z" fill="#333333"/>
</svg>
