<svg width="25" height="23" viewBox="0 0 25 23" fill="none" xmlns="http://www.w3.org/2000/svg">
<path d="M25 7.6457C24.9701 7.87238 24.9456 8.09906 24.9076 8.32305C24.7553 9.22978 24.4317 10.0798 24.0293 10.9029C23.3415 12.3035 22.4469 13.5718 21.4545 14.7727C20.2011 16.2893 18.8008 17.6602 17.3272 18.9609C16.2505 19.9081 15.1412 20.8176 13.9938 21.6838C13.5397 22.0266 13.0775 22.3585 12.6207 22.6985C12.5364 22.7633 12.4793 22.766 12.3869 22.7012C10.6522 21.4598 8.98821 20.1321 7.39491 18.7154C5.86687 17.3526 4.42584 15.9061 3.15882 14.2951C2.1936 13.0699 1.33441 11.78 0.714496 10.347C0.344722 9.49154 0.0728283 8.6091 0.0157307 7.67808C-0.0903077 5.89161 0.333846 4.25355 1.46764 2.83679C2.53074 1.50638 3.91468 0.686001 5.59498 0.370264C5.84784 0.32169 6.10614 0.310895 6.36172 0.281211C6.4025 0.275813 6.44057 0.265019 6.47863 0.259622C6.7043 0.259622 6.93269 0.259622 7.15837 0.259622C7.20187 0.267717 7.24537 0.281211 7.28887 0.283909C7.9251 0.324388 8.5423 0.448524 9.14047 0.667111C10.1166 1.01253 10.9594 1.56035 11.6854 2.28897C11.9573 2.56423 12.2455 2.82329 12.5419 3.10125C12.6125 3.02569 12.705 2.92854 12.8002 2.83139C13.2624 2.35104 13.7219 1.86799 14.2765 1.48479C15.114 0.904588 16.0302 0.510592 17.0444 0.356771C17.3109 0.316292 17.58 0.286608 17.8492 0.251526C18.0749 0.251526 18.3033 0.251526 18.5289 0.251526C18.567 0.259622 18.6078 0.270416 18.6459 0.275813C18.9014 0.305498 19.1597 0.316292 19.4126 0.364867C21.1391 0.691398 22.5421 1.54686 23.6106 2.93124C24.2904 3.81098 24.7254 4.80407 24.8967 5.9024C24.9375 6.16686 24.9647 6.43403 25 6.70119C25 7.01692 25 7.32996 25 7.6457ZM12.463 4.68533C12.4793 4.69613 12.4956 4.70962 12.5147 4.72041C12.4413 4.65565 12.3651 4.59088 12.2944 4.52072C11.7071 3.93782 11.147 3.32793 10.538 2.77472C9.59725 1.91926 8.46073 1.48209 7.19643 1.39303C6.24752 1.32557 5.33124 1.49558 4.4639 1.89498C3.10716 2.52105 2.14194 3.52223 1.56552 4.89042C1.35073 5.40316 1.20662 5.93748 1.18487 6.49339C1.16312 6.99534 1.15496 7.49997 1.20662 7.99922C1.27732 8.68466 1.51658 9.33232 1.79663 9.9638C2.32954 11.1674 3.0419 12.263 3.83855 13.3074C4.96419 14.7808 6.23937 16.1139 7.60427 17.3688C8.87401 18.5373 10.1981 19.6383 11.5712 20.6853C11.8812 20.9228 12.1965 21.1549 12.5255 21.4032C13.3467 20.7609 14.1651 20.1294 14.9699 19.4818C16.0411 18.6236 17.0689 17.7142 18.0586 16.7643C18.9232 15.9358 19.7443 15.0696 20.5083 14.1493C21.6367 12.7838 22.6536 11.3455 23.336 9.69934C23.6161 9.01929 23.8254 8.32035 23.8635 7.58093C23.9179 6.58515 23.7901 5.61905 23.3714 4.70152C22.8765 3.62208 22.1179 2.76932 21.0929 2.17023C19.9564 1.50638 18.7274 1.2581 17.4169 1.43621C16.5876 1.54955 15.8263 1.83291 15.1221 2.27818C14.475 2.68567 13.9802 3.25777 13.4445 3.784C13.121 4.09434 12.7866 4.38579 12.463 4.68533Z" fill="#F19515"/>
</svg>
