<svg width="29" height="23" viewBox="0 0 29 23" fill="none" xmlns="http://www.w3.org/2000/svg">
<path d="M14.4802 0C18.0849 0 21.695 0 25.2996 0C26.5284 0 27.4472 0.538428 28.0561 1.59897C28.3062 2.0395 28.4204 2.52354 28.4204 3.0239C28.4258 5.82481 28.4204 8.62573 28.4204 11.4266C28.4204 13.0147 28.4204 14.5974 28.4204 16.1855C28.4204 16.9469 28.2301 17.6485 27.7353 18.2467C27.0938 19.0245 26.2511 19.378 25.2561 19.378C23.7447 19.3834 22.2278 19.3834 20.7163 19.378C20.1563 19.378 19.8029 18.9918 19.9987 18.5567C20.0693 18.399 20.2596 18.2794 20.4227 18.1923C20.5315 18.1325 20.6891 18.1488 20.8196 18.1488C22.3963 18.1434 23.973 18.1488 25.5497 18.1271C26.3218 18.1162 27.0775 17.4201 27.1536 16.6586C27.2025 16.2018 27.208 15.7395 27.208 15.2772C27.208 11.753 27.208 8.22871 27.2025 4.70445C27.2025 4.06269 27.2134 3.41548 27.159 2.77916C27.0775 1.88722 26.3109 1.2237 25.4084 1.2237C19.9552 1.21826 14.502 1.2237 9.04878 1.21826C7.21112 1.21826 5.37345 1.21282 3.53035 1.2237C2.66589 1.22914 1.89929 1.90897 1.82317 2.76828C1.77424 3.29583 1.77424 3.83426 1.77424 4.36725C1.77424 7.89151 1.77424 11.4158 1.77968 14.94C1.77968 15.4893 1.77968 16.0441 1.82317 16.5934C1.89385 17.4255 2.61695 18.1162 3.4488 18.1271C5.05268 18.1488 6.65656 18.1434 8.26044 18.1488C8.65189 18.1488 8.90199 18.2848 8.99442 18.5404C9.15208 18.981 8.85849 19.3562 8.33655 19.378C8.05383 19.3889 7.77655 19.378 7.49384 19.378C6.24335 19.378 4.99287 19.3834 3.74239 19.378C2.29618 19.3725 1.13269 18.5567 0.724921 17.2623C0.632494 16.9741 0.578125 16.6586 0.578125 16.3595C0.578125 11.9488 0.578125 7.53256 0.583562 3.1218C0.583562 1.5609 1.51871 0.402461 3.04647 0.0598254C3.29113 0.00543867 3.54666 0 3.80219 0C7.35791 0 10.9191 0 14.4802 0Z" fill="#333333"/>
<path d="M14.6759 10.9046C13.7733 10.8937 13.1481 10.6653 12.599 10.2682C9.63044 8.13083 6.66734 5.98256 3.6988 3.83972C3.54657 3.73095 3.38346 3.62218 3.2421 3.50253C2.99744 3.29586 2.93764 2.9369 3.10074 2.6976C3.2856 2.42567 3.61725 2.32777 3.9054 2.52356C4.54695 2.94778 5.16676 3.40463 5.78656 3.85604C8.27665 5.6508 10.7613 7.451 13.2514 9.2512C14.0941 9.86033 14.8825 9.86577 15.7252 9.25664C18.7481 7.07573 21.7601 4.89482 24.7776 2.71936C24.9951 2.56164 25.2071 2.3604 25.5061 2.43655C25.7399 2.49093 25.9139 2.63778 25.9628 2.88252C26.0172 3.16533 25.9139 3.39375 25.6747 3.56235C24.9896 4.05183 24.3154 4.54675 23.6304 5.04167C21.2817 6.74397 18.9329 8.44084 16.5842 10.1431C15.9535 10.6 15.2685 10.9209 14.6759 10.9046Z" fill="#333333"/>
<path d="M9.65777 9.61035C9.85893 9.7572 10.0438 9.84965 10.1634 9.9965C10.3102 10.176 10.2939 10.4044 10.158 10.6056C10.1036 10.6872 10.0383 10.7633 9.96767 10.8341C8.0267 12.7757 6.09117 14.7173 4.15021 16.6534C3.77506 17.0287 3.35642 17.0341 3.11176 16.6752C2.96497 16.4576 2.96497 16.2292 3.10633 16.0171C3.19875 15.8811 3.31293 15.7669 3.4271 15.6527C5.30826 13.7709 7.18942 11.8837 9.07602 10.0074C9.23369 9.86053 9.43485 9.76263 9.65777 9.61035Z" fill="#333333"/>
<path d="M26.0772 16.3541C25.9249 16.5553 25.8325 16.7729 25.6748 16.849C25.5172 16.9251 25.2834 16.8871 25.0931 16.849C24.9898 16.8273 24.9028 16.713 24.8212 16.6315C22.8912 14.7062 20.9611 12.7809 19.0473 10.8447C18.895 10.6924 18.7591 10.4423 18.7646 10.241C18.77 10.0724 18.9549 9.85488 19.118 9.75155C19.3409 9.61558 19.5964 9.7026 19.7867 9.88207C20.0585 10.1431 20.3249 10.4151 20.5968 10.687C22.2931 12.3839 23.9894 14.0753 25.6803 15.7776C25.8271 15.9244 25.9249 16.1311 26.0772 16.3541Z" fill="#333333"/>
<path d="M14.5402 14.5377C15.7254 14.5377 16.9106 14.5377 18.0904 14.5377C18.3514 14.5377 18.5471 14.641 18.6613 14.8749C18.77 15.0978 18.7374 15.3154 18.5906 15.5112C18.433 15.7179 18.1992 15.745 17.9599 15.745C15.9646 15.745 13.9747 15.745 11.9794 15.745C11.626 15.745 11.2726 15.7559 10.9192 15.7396C10.4353 15.7233 10.1472 15.3317 10.3103 14.9184C10.4027 14.6899 10.5712 14.5485 10.8268 14.5431C11.278 14.5377 11.7293 14.5322 12.186 14.5322C12.9689 14.5322 13.7572 14.5322 14.5402 14.5377C14.5402 14.5322 14.5402 14.5377 14.5402 14.5377Z" fill="#333333"/>
<path d="M14.5074 19.3779C15.6546 19.3779 16.8072 19.3725 17.9544 19.3833C18.1121 19.3833 18.2806 19.4105 18.422 19.4703C18.6449 19.5628 18.7373 19.7804 18.721 20.0033C18.7047 20.2481 18.5851 20.4547 18.3295 20.5309C18.2099 20.569 18.0794 20.5798 17.9544 20.5798C15.6491 20.5853 13.3385 20.5798 11.0332 20.5798C10.9354 20.5798 10.8321 20.5744 10.7396 20.5526C10.4515 20.4874 10.2395 20.2209 10.2558 19.949C10.2775 19.6335 10.5113 19.3888 10.8375 19.3779C11.2779 19.367 11.7237 19.3725 12.1695 19.3725C12.9525 19.3779 13.7299 19.3779 14.5074 19.3779Z" fill="#333333"/>
<path d="M14.4693 18.1596C13.3276 18.1596 12.1858 18.1596 11.0441 18.1596C10.8049 18.1596 10.5765 18.1433 10.408 17.9367C10.1307 17.594 10.2775 17.11 10.707 16.9903C10.8157 16.9577 10.9353 16.9414 11.0495 16.9414C13.3493 16.9359 15.6491 16.9414 17.9489 16.9414C18.3784 16.9414 18.6068 17.0828 18.6992 17.4091C18.7916 17.7354 18.5796 18.0835 18.2425 18.1324C18.1012 18.1542 17.9544 18.1596 17.8076 18.1596C16.6984 18.1596 15.5839 18.1596 14.4693 18.1596Z" fill="#333333"/>
<path d="M14.4856 23C13.3384 23 12.1858 23 11.0386 23C10.5873 23 10.4079 22.8858 10.3046 22.554C10.2122 22.2495 10.3861 21.9177 10.6906 21.8361C10.8102 21.8035 10.9407 21.7872 11.0658 21.7872C13.3656 21.7817 15.6654 21.7817 17.9597 21.7817C18.3892 21.7817 18.6176 21.934 18.7046 22.2603C18.7916 22.5758 18.5795 22.9184 18.2588 22.9728C18.1337 22.9946 18.0087 23 17.8782 23C16.7527 23 15.6164 23 14.4856 23Z" fill="#333333"/>
</svg>
