<svg width="65" height="40" viewBox="0 0 65 40" fill="none" xmlns="http://www.w3.org/2000/svg">
<g filter="url(#filter0_d)">
<path d="M56 26L56 8C56 7.44772 55.5523 7 55 7L21.4142 7C21.149 7 20.8946 7.10535 20.7071 7.29289L11.7071 16.2929C11.3166 16.6834 11.3166 17.3166 11.7071 17.7071L20.7071 26.7071C20.8946 26.8946 21.149 27 21.4142 27L55 27C55.5523 27 56 26.5523 56 26Z" fill="#7FBC1E"/>
</g>
<path d="M40 14.0088C40.4649 14.0088 40.866 14.0088 41.3127 14.0088C41.7685 15.7423 42.2151 17.4672 42.6709 19.192C42.7074 19.192 42.7347 19.192 42.7712 19.192C43.2726 17.4672 43.783 15.7423 44.2844 14C44.7584 14 45.2051 14 45.6974 14C46.1805 15.7248 46.6545 17.4497 47.1376 19.1657C47.1741 19.1657 47.2106 19.1745 47.2379 19.1745C47.6846 17.4584 48.1404 15.7336 48.5962 14C49.0702 14 49.5169 14 50 14C49.5624 15.4884 49.134 16.9593 48.6964 18.4303C48.4685 19.1832 48.2315 19.9362 48.0219 20.6979C47.9581 20.9343 47.8487 20.9869 47.6117 20.9956C46.6089 21.0131 46.6089 21.0219 46.3446 20.1113C45.9161 18.6667 45.4877 17.2308 45.0319 15.6723C44.6855 16.7755 44.3847 17.7561 44.0747 18.7455C43.8742 19.4021 43.6737 20.0588 43.4458 20.7067C43.4002 20.8205 43.2179 20.9693 43.0902 20.9693C41.9872 21.0306 41.9872 21.0219 41.6955 20.0062C41.1668 18.1501 40.6381 16.3027 40.1094 14.4465C40.0729 14.324 40.0456 14.1751 40 14.0088Z" fill="white" stroke="white" stroke-width="0.2" stroke-miterlimit="10"/>
<path d="M26 20.966C26 18.635 26 16.3476 26 14.0078C26.4058 14.0078 26.7942 13.9816 27.1741 14.0253C27.3209 14.0427 27.4935 14.1999 27.5799 14.3308C28.5554 15.7714 29.5137 17.2206 30.4719 18.6699C30.5496 18.7834 30.636 18.8969 30.7914 19.1151C30.7914 17.3516 30.7914 15.7015 30.7914 14.034C31.223 14.034 31.6029 14.034 32 14.034C32 16.3388 32 18.635 32 20.9922C31.5856 20.9922 31.154 21.0184 30.7309 20.9747C30.6187 20.966 30.4978 20.7827 30.4115 20.6604C29.4446 19.2112 28.4863 17.7619 27.5194 16.3214C27.4417 16.2079 27.3554 16.0944 27.2086 15.8849C27.2086 17.6484 27.2086 19.2898 27.2086 20.966C26.7942 20.966 26.4144 20.966 26 20.966Z" fill="white" stroke="white" stroke-width="0.2" stroke-miterlimit="10"/>
<path d="M34 14C35.6751 14 37.3249 14 39 14C39 14.3438 39 14.6788 39 15.0491C37.729 15.0491 36.4747 15.0491 35.1953 15.0491C35.1953 15.5869 35.1953 16.0806 35.1953 16.636C36.3569 16.636 37.5101 16.636 38.6886 16.636C38.6886 16.9975 38.6886 17.2972 38.6886 17.6499C37.5185 17.6499 36.3737 17.6499 35.2037 17.6499C35.2037 18.4345 35.2037 19.1751 35.2037 19.9421C36.4747 19.9421 37.7121 19.9421 38.9916 19.9421C38.9916 20.3035 38.9916 20.6297 38.9916 21C37.3502 21 35.6919 21 34 21C34 18.6902 34 16.3627 34 14Z" fill="white" stroke="white" stroke-width="0.2" stroke-miterlimit="10"/>
<defs>
<filter id="filter0_d" x="0.414062" y="0" width="64.5858" height="40" filterUnits="userSpaceOnUse" color-interpolation-filters="sRGB">
<feFlood flood-opacity="0" result="BackgroundImageFix"/>
<feColorMatrix in="SourceAlpha" type="matrix" values="0 0 0 0 0 0 0 0 0 0 0 0 0 0 0 0 0 0 127 0"/>
<feOffset dx="-1" dy="3"/>
<feGaussianBlur stdDeviation="5"/>
<feColorMatrix type="matrix" values="0 0 0 0 0 0 0 0 0 0 0 0 0 0 0 0 0 0 0.15 0"/>
<feBlend mode="normal" in2="BackgroundImageFix" result="effect1_dropShadow"/>
<feBlend mode="normal" in="SourceGraphic" in2="effect1_dropShadow" result="shape"/>
</filter>
</defs>
</svg>
