<svg width="21" height="20" viewBox="0 0 21 20" fill="none" xmlns="http://www.w3.org/2000/svg">
<path d="M0.143481 8.46926C0.917693 8.91307 1.63283 9.31653 2.34485 9.7262C3.41134 10.3376 4.49959 10.918 5.53187 11.579C6.01692 11.8894 6.35583 11.8366 6.82222 11.5635C10.6715 9.31653 14.5395 7.10059 18.4012 4.87223C18.5815 4.76671 18.7712 4.67671 18.9547 4.57739C20.6306 7.55992 20.5311 12.0601 17.8167 15.3871C15.0805 18.7358 10.4601 19.9493 6.446 18.3665C2.46301 16.7961 -0.142574 12.7522 0.143481 8.46926Z" fill="#333333" fill-opacity="0.75"/>
<path d="M0.6099 6.21587C1.44008 6.69072 2.27026 7.15935 3.09733 7.6342C3.91507 8.10284 4.74214 8.54975 5.53501 9.05563C5.97652 9.33805 6.31855 9.33805 6.77872 9.06804C10.2425 7.04452 13.7249 5.04893 17.2041 3.04403C17.3845 2.93851 17.571 2.8454 17.7949 2.72437C17.9939 2.97886 18.1774 3.21473 18.3888 3.48163C18.2458 3.58405 18.1338 3.68026 18.0063 3.75164C14.213 5.93965 10.4166 8.12146 6.63258 10.3188C6.29678 10.5143 6.04182 10.5267 5.70602 10.3281C4.11717 9.39081 2.51589 8.47526 0.920828 7.55661C0.208802 7.14694 0.190147 7.08177 0.6099 6.21587Z" fill="#333333" fill-opacity="0.75"/>
<path d="M1.44628 4.16444C2.8579 4.97757 4.28195 5.77519 5.68113 6.61315C6.04803 6.8335 6.3061 6.81178 6.66677 6.60074C9.57084 4.90619 12.4874 3.23647 15.4008 1.56055C16.2216 1.08881 16.2216 1.08571 16.9336 1.81504C16.7719 1.92056 16.6196 2.02919 16.461 2.1223C13.1652 4.02168 9.86934 5.91485 6.57971 7.82664C6.27189 8.00355 6.05735 8.00665 5.75264 7.82354C4.41565 7.02903 3.06 6.26245 1.71057 5.48966C0.861738 5.0024 0.861738 5.0024 1.44628 4.16444Z" fill="#333333" fill-opacity="0.75"/>
<path d="M15.0214 0.421647C13.7372 1.1634 12.4749 1.89274 11.2125 2.62207C9.68274 3.50348 8.14364 4.37248 6.6232 5.27562C6.27496 5.48356 6.02311 5.46494 5.69042 5.26631C4.50578 4.55559 3.30248 3.87591 2.05255 3.15589C2.2702 2.88277 2.4692 2.63759 2.68995 2.36137C3.70358 2.94174 4.70166 3.47866 5.65932 4.07764C6.04798 4.31972 6.3216 4.28248 6.69471 4.06213C8.84634 2.79898 11.0415 1.601 13.1682 0.297504C13.8616 -0.130787 14.384 -0.102855 15.0214 0.421647Z" fill="#333333" fill-opacity="0.75"/>
</svg>
