<svg width="35" height="23" viewBox="0 0 35 23" fill="none" xmlns="http://www.w3.org/2000/svg">
<path d="M34.9996 0.624055C34.9586 0.745637 34.9107 0.921254 34.8492 1.08336C33.2078 5.48732 31.5596 9.89127 29.9183 14.2885C28.8993 17.0241 27.8734 19.7664 26.8544 22.502C26.663 23.0221 26.2663 23.1369 25.7739 22.8194C23.6538 21.455 21.5269 20.0974 19.4137 18.7262C19.229 18.6114 19.1196 18.6181 18.9418 18.7329C16.8559 20.1176 14.77 21.4888 12.6841 22.86C12.2396 23.1572 11.7677 22.9613 11.6856 22.4614C11.501 21.3334 11.3027 20.2122 11.1043 19.0842C10.8239 17.5171 10.5367 15.9568 10.2563 14.3898C10.1879 13.9913 10.1332 13.5928 10.0306 13.2077C9.99642 13.0794 9.8528 12.9578 9.7297 12.8903C7.89686 11.9244 6.06402 10.972 4.22434 10.0196C2.97965 9.37117 1.7418 8.72274 0.490276 8.08105C0.196201 7.93246 -0.0363238 7.74333 0.00470988 7.39209C0.0457436 7.04761 0.319302 6.93279 0.627055 6.86524C2.4257 6.50049 4.22434 6.129 6.02299 5.76425C8.39611 5.27793 10.7692 4.79835 13.1492 4.31203C15.8574 3.75816 18.5656 3.20429 21.2739 2.65041C23.9821 2.09654 26.6903 1.54267 29.3917 0.9888C30.9578 0.671337 32.5171 0.347119 34.0832 0.0296566C34.644 -0.0851704 35.0133 0.137729 34.9996 0.624055ZM15.6249 14.9234C19.0922 17.1456 22.5185 19.3476 25.9654 21.5631C28.3727 15.1058 30.7663 8.68221 33.201 2.16409C27.2921 6.44646 21.479 10.6748 15.6249 14.9234ZM2.32995 7.69605C2.38467 7.75008 2.40518 7.7771 2.43254 7.79061C5.0587 9.16178 7.68485 10.5329 10.3179 11.8906C10.4341 11.9514 10.6461 11.9244 10.7761 11.8568C16.3293 9.06046 21.8757 6.25733 27.4289 3.4542C28.3248 3.00165 29.2139 2.54234 30.1098 2.08979C30.1029 2.06952 30.0961 2.05602 30.0893 2.03575C20.8498 3.92027 11.6173 5.80478 2.32995 7.69605ZM12.4448 19.915C12.9645 18.2264 13.4638 16.639 13.9493 15.045C14.0451 14.741 14.2024 14.5114 14.4623 14.3222C18.1074 11.6812 21.7526 9.03344 25.3909 6.39242C26.2184 5.79127 27.0528 5.19012 27.8803 4.58896C27.7914 4.5687 27.7161 4.58896 27.6546 4.62274C22.2587 7.35157 16.8627 10.0872 11.4668 12.8092C11.2274 12.9308 11.1727 13.0524 11.2206 13.2956C11.542 14.9977 11.8498 16.7066 12.1644 18.4155C12.2464 18.8883 12.3353 19.3544 12.4448 19.915ZM13.3749 20.9282C13.4022 20.9417 13.4227 20.9552 13.4501 20.9619C14.9957 19.942 16.5413 18.9221 18.1074 17.8954C17.0337 17.2064 15.9942 16.5377 14.9273 15.8623C14.4007 17.5779 13.8878 19.253 13.3749 20.9282Z" fill="#333333"/>
</svg>
