<svg width="16" height="15" viewBox="0 0 16 15" fill="none" xmlns="http://www.w3.org/2000/svg">
<path d="M7.97618 14.8557C6.00537 14.8557 4.03712 14.8557 2.06632 14.8557C1.6691 14.8557 1.30244 14.7606 0.981614 14.5137C0.706619 14.3003 0.515649 14.0251 0.408706 13.6908C0.0649616 12.6082 -0.0114261 11.4895 0.00130522 10.3632C0.00894399 9.78716 0.0242166 9.21113 0.0598642 8.63767C0.0955118 8.05649 0.278847 7.51389 0.561482 7.00986C0.895042 6.4184 1.40938 6.13553 2.08414 6.13553C4.08804 6.1381 6.0945 6.13553 8.0984 6.13553C9.92662 6.13553 11.7574 6.13296 13.5856 6.1381C13.8198 6.1381 14.0617 6.13553 14.2884 6.18182C14.9708 6.32325 15.4113 6.75014 15.5717 7.4316C15.6913 7.94334 15.7779 8.46537 15.8365 8.98997C15.8976 9.548 15.9409 10.1137 15.9383 10.6744C15.9307 11.6001 15.8314 12.5182 15.62 13.4208C15.536 13.7782 15.3909 14.1023 15.1312 14.3671C14.8027 14.6989 14.4004 14.8557 13.9421 14.8557C12.2106 14.8609 10.4792 14.8583 8.75025 14.8583C8.49053 14.8557 8.23335 14.8557 7.97618 14.8557ZM9.03542 7.90734C8.75533 7.90734 8.48543 7.90734 8.20534 7.90734C8.20534 7.95106 8.20534 7.98963 8.20534 8.02821C8.20534 8.54509 8.20534 9.06455 8.20534 9.58143C8.20534 10.6846 8.20535 11.7878 8.2028 12.8936C8.2028 12.9836 8.22316 13.0171 8.31992 13.0145C8.52108 13.0068 8.72223 13.0119 8.92084 13.0119C8.94376 13.0119 8.96922 13.0068 8.99468 13.0042C8.99977 12.9579 9.00487 12.9219 9.00996 12.8756C9.03797 12.891 9.06089 12.9013 9.08126 12.9142C9.33334 13.0839 9.61343 13.1251 9.9037 13.0711C10.3697 12.9836 10.6778 12.6853 10.8942 12.279C11.0724 11.9421 11.131 11.5744 11.1412 11.199C11.159 10.6538 11.0699 10.1343 10.7516 9.67658C10.3875 9.15455 9.61852 8.97197 9.10418 9.31913C9.08635 9.32942 9.06598 9.33456 9.03542 9.34999C9.03542 8.85882 9.03542 8.38308 9.03542 7.90734ZM14.5532 11.4252C14.5761 11.0267 14.5684 10.6486 14.4564 10.2809C14.3011 9.77687 14.0108 9.39114 13.499 9.21884C12.725 8.95911 11.9356 9.34742 11.6352 10.1292C11.4416 10.6306 11.4238 11.1527 11.5078 11.6773C11.5613 12.0244 11.6886 12.3407 11.9229 12.6056C12.2819 13.0068 12.7402 13.1302 13.2571 13.0839C14.0057 13.0145 14.4717 12.4282 14.5735 11.6773C14.3138 11.6413 14.0516 11.6027 13.7918 11.5693C13.774 11.5667 13.7435 11.6027 13.7333 11.6258C13.6849 11.7364 13.6492 11.8547 13.5958 11.9627C13.5143 12.1247 13.3895 12.2379 13.2062 12.2764C12.7479 12.369 12.2844 11.9164 12.3481 11.4304C13.0763 11.4252 13.8097 11.4252 14.5532 11.4252ZM6.89657 9.22399C6.89657 9.27285 6.89657 9.31142 6.89657 9.34999C6.89657 9.98517 6.89911 10.6178 6.89402 11.253C6.89402 11.4047 6.88129 11.5564 6.85837 11.7056C6.81509 12.0116 6.62412 12.2096 6.33894 12.2559C6.05885 12.3022 5.84496 12.1453 5.81186 11.8598C5.79403 11.7133 5.79149 11.5641 5.78894 11.4175C5.7864 10.7232 5.7864 10.0263 5.78894 9.33199C5.78894 9.24456 5.76858 9.2137 5.67691 9.21884C5.53687 9.22656 5.39682 9.21884 5.25678 9.21627C5.16002 9.21627 5.06326 9.21627 4.95378 9.21627C4.95378 9.27285 4.95378 9.31142 4.95378 9.34742C4.95378 9.88745 4.94868 10.4275 4.95378 10.9701C4.95632 11.3404 4.95632 11.7107 4.98687 12.0784C5.00979 12.3613 5.12438 12.6185 5.35099 12.8113C5.76858 13.1636 6.41278 13.1868 6.85329 12.8653C6.87875 12.8473 6.90166 12.8319 6.93731 12.8062C6.9424 12.8808 6.9475 12.9425 6.95259 13.0042C7.21231 13.0042 7.45929 13.0042 7.71137 13.0042C7.71137 11.7416 7.71137 10.4866 7.71137 9.22399C7.44401 9.22399 7.1792 9.22399 6.89657 9.22399ZM3.62208 13.0042C3.62463 12.9656 3.62462 12.9425 3.62462 12.9168C3.62717 12.2121 3.62972 11.5075 3.62972 10.8029C3.62972 10.1703 3.62717 9.53515 3.62208 8.90254C3.62208 8.80739 3.65009 8.78425 3.73921 8.78425C4.12878 8.78939 4.51582 8.78425 4.9054 8.78682C4.97924 8.78682 5.00725 8.76882 5.0047 8.6891C4.99961 8.52195 5.00215 8.35479 5.00215 8.18764C5.00215 8.09507 5.00215 8.00249 5.00215 7.90477C3.79013 7.90477 2.5883 7.90477 1.38392 7.90477C1.38137 7.94077 1.37883 7.9742 1.37883 8.00506C1.37883 8.23136 1.38138 8.45509 1.37628 8.68138C1.37374 8.76882 1.40683 8.78939 1.48577 8.78939C1.87025 8.78425 2.25729 8.78939 2.64177 8.78425C2.73089 8.78425 2.75381 8.81253 2.75381 8.8974C2.75126 9.7923 2.75126 10.6872 2.75126 11.5821C2.75126 12.027 2.75381 12.4693 2.74871 12.9142C2.74871 12.9913 2.77163 13.0145 2.84547 13.0119C3.07464 13.0068 3.3038 13.0093 3.53296 13.0093C3.56352 13.0093 3.58898 13.0068 3.62208 13.0042Z" fill="#333333" fill-opacity="0.75"/>
<path d="M5.92896 5.25618C5.66415 5.25618 5.41462 5.25618 5.14981 5.25618C5.14981 5.21503 5.14981 5.17646 5.14981 5.14046C5.14981 4.49756 5.14982 3.8521 5.14727 3.20921C5.14727 3.14492 5.13199 3.07549 5.10398 3.01634C4.6482 2.08543 4.18733 1.15709 3.729 0.228758C3.71882 0.205614 3.70864 0.18247 3.69336 0.143897C3.82322 0.143897 3.94289 0.143897 4.06257 0.143897C4.21534 0.143897 4.36812 0.146468 4.52089 0.141325C4.58455 0.138753 4.61764 0.159326 4.64311 0.218472C4.93847 0.845935 5.23893 1.47083 5.53939 2.09572C5.54703 2.11372 5.55721 2.12915 5.57249 2.16001C5.62341 2.05457 5.6667 1.95942 5.71253 1.86685C5.97734 1.3191 6.24469 0.768788 6.51205 0.221044C6.52733 0.190185 6.56044 0.14904 6.5859 0.14904C6.86599 0.143897 7.14607 0.146468 7.44143 0.146468C7.37268 0.282761 7.31157 0.403625 7.25046 0.524489C6.82269 1.36282 6.39238 2.19858 5.96716 3.03691C5.94169 3.08577 5.92896 3.14749 5.92896 3.20149C5.92642 3.8521 5.92641 4.50271 5.92641 5.15074C5.92896 5.1816 5.92896 5.21246 5.92896 5.25618Z" fill="#333333" fill-opacity="0.75"/>
<path d="M9.40464 3.37119C9.397 3.74407 9.37409 4.11695 9.22895 4.46925C9.06345 4.86785 8.79354 5.16358 8.37341 5.29216C7.82851 5.45931 7.27088 5.21244 6.97042 4.68269C6.79982 4.38182 6.72853 4.05523 6.70306 3.71578C6.66996 3.28119 6.6827 2.84659 6.81001 2.42486C6.92459 2.04169 7.13339 1.72539 7.48732 1.52995C8.03731 1.2265 8.71462 1.41937 9.06854 1.96712C9.31299 2.34514 9.38682 2.76687 9.40464 3.20661C9.40719 3.26062 9.40464 3.31719 9.40464 3.37119ZM7.44403 3.42005C7.45166 3.50234 7.45676 3.65407 7.47713 3.80322C7.51024 4.03466 7.57644 4.25581 7.75467 4.42297C7.93291 4.58755 8.18245 4.59269 8.34286 4.41011C8.43707 4.3021 8.51855 4.16838 8.55929 4.03209C8.68151 3.60778 8.67896 3.17575 8.57966 2.7463C8.53892 2.57401 8.45999 2.42228 8.32758 2.30142C8.16717 2.15741 7.93291 2.14455 7.78014 2.29628C7.68847 2.38628 7.60953 2.50457 7.55606 2.62544C7.45421 2.85174 7.44912 3.10375 7.44403 3.42005Z" fill="#333333" fill-opacity="0.75"/>
<path d="M11.4162 1.4734C11.6683 1.4734 11.9102 1.4734 12.1572 1.4734C12.1572 2.73347 12.1572 3.98582 12.1572 5.24846C11.9306 5.24846 11.7039 5.24846 11.4671 5.24846C11.4646 5.1996 11.462 5.14817 11.4595 5.08902C11.4417 5.09674 11.4289 5.10188 11.4188 5.1096C10.9401 5.54162 10.0107 5.36161 9.83499 4.52328C9.79425 4.33298 9.77643 4.13497 9.77643 3.93953C9.76879 3.14492 9.77388 2.3503 9.77388 1.55312C9.77388 1.5274 9.77643 1.50168 9.77643 1.47083C10.0209 1.47083 10.2628 1.47083 10.5174 1.47083C10.5174 1.50683 10.5174 1.54026 10.5174 1.57369C10.5174 2.28601 10.5174 2.99577 10.5199 3.70809C10.5199 3.8341 10.5276 3.9601 10.5352 4.08354C10.5556 4.32527 10.6676 4.47956 10.8408 4.51042C11.0215 4.54128 11.2456 4.41527 11.3144 4.20955C11.3704 4.03982 11.4086 3.8521 11.4111 3.67209C11.4239 3.00348 11.4162 2.3323 11.4188 1.66369C11.4162 1.60712 11.4162 1.5454 11.4162 1.4734Z" fill="#333333" fill-opacity="0.75"/>
<path d="M9.03538 7.90723C9.03538 8.38555 9.03538 8.85872 9.03538 9.34731C9.06848 9.33446 9.08885 9.32931 9.10413 9.31646C9.61847 8.96929 10.3874 9.15188 10.7516 9.6739C11.0698 10.1316 11.159 10.6511 11.1411 11.1963C11.1284 11.5717 11.0724 11.942 10.8941 12.2763C10.6777 12.6826 10.3696 12.9809 9.90365 13.0684C9.61083 13.1224 9.3333 13.0812 9.08122 12.9115C9.06085 12.8987 9.03792 12.8884 9.00991 12.8729C9.00482 12.9192 8.99973 12.9552 8.99463 13.0015C8.96917 13.0041 8.94626 13.0092 8.9208 13.0092C8.71964 13.0092 8.51848 13.0067 8.31988 13.0118C8.22567 13.0144 8.20276 12.9835 8.20276 12.8909C8.20531 11.7877 8.2053 10.6845 8.2053 9.57876C8.2053 9.06187 8.2053 8.54241 8.2053 8.02553C8.2053 7.98695 8.2053 7.95095 8.2053 7.90466C8.48538 7.90723 8.75529 7.90723 9.03538 7.90723ZM8.98955 11.1346C8.99464 11.2426 8.99718 11.3557 9.00991 11.4663C9.03538 11.7209 9.09649 11.96 9.29 12.1452C9.48352 12.3303 9.76361 12.3329 9.96476 12.1529C10.0819 12.0475 10.1634 11.9189 10.2118 11.7697C10.2983 11.5049 10.3136 11.2348 10.2983 10.9597C10.2856 10.7154 10.2601 10.4711 10.1303 10.2551C10.031 10.0905 9.9011 9.96192 9.69485 9.94906C9.43514 9.93363 9.28236 10.0879 9.16269 10.2911C9.00991 10.5482 8.99973 10.8388 8.98955 11.1346Z" fill="white"/>
<path d="M14.5532 11.4253C13.8097 11.4253 13.0764 11.4253 12.343 11.4253C12.2794 11.9088 12.7428 12.3614 13.2011 12.2714C13.3845 12.2354 13.5092 12.1197 13.5907 11.9577C13.6467 11.8497 13.6798 11.7314 13.7282 11.6208C13.7384 11.5976 13.7689 11.5616 13.7868 11.5642C14.049 11.5976 14.3088 11.6362 14.5685 11.6722C14.4692 12.4231 14.0007 13.012 13.252 13.0789C12.7377 13.1252 12.2768 13.0043 11.9178 12.6006C11.6836 12.3357 11.5562 12.0194 11.5028 11.6722C11.4213 11.145 11.4366 10.6256 11.6301 10.1241C11.9305 9.34238 12.7224 8.95407 13.4939 9.2138C14.0032 9.38609 14.296 9.77183 14.4513 10.2759C14.5685 10.6462 14.5761 11.0268 14.5532 11.4253ZM12.3685 10.6153C12.8064 10.6153 13.2368 10.6153 13.6696 10.6153C13.6569 10.2373 13.387 9.95184 13.0483 9.9467C12.697 9.94412 12.3863 10.2501 12.3685 10.6153Z" fill="white"/>
<path d="M6.89653 9.22402C7.17916 9.22402 7.44398 9.22402 7.71897 9.22402C7.71897 10.4867 7.71897 11.7416 7.71897 13.0042C7.4669 13.0042 7.21735 13.0042 6.96018 13.0042C6.95509 12.9425 6.95254 12.8808 6.9449 12.8062C6.90925 12.8294 6.88634 12.8474 6.86088 12.8654C6.42038 13.1842 5.77363 13.1611 5.35859 12.8114C5.13197 12.6211 5.01739 12.3639 4.99448 12.0785C4.96392 11.7107 4.96392 11.3404 4.96137 10.9701C4.95628 10.4301 4.96137 9.89006 4.96137 9.34746C4.96137 9.30889 4.96137 9.27031 4.96137 9.21631C5.06831 9.21631 5.16761 9.21631 5.26437 9.21631C5.40442 9.21631 5.54446 9.22402 5.6845 9.21888C5.77617 9.21374 5.79655 9.24717 5.79655 9.33203C5.794 10.0264 5.794 10.7232 5.79655 11.4176C5.79655 11.5642 5.80164 11.7133 5.81946 11.8599C5.85257 12.1453 6.06644 12.3022 6.34653 12.2559C6.63171 12.207 6.82524 12.0116 6.86598 11.7056C6.88635 11.5564 6.89908 11.4047 6.90162 11.253C6.90417 10.6178 6.90417 9.98521 6.90417 9.35003C6.89653 9.31146 6.89653 9.27288 6.89653 9.22402Z" fill="white"/>
<path d="M3.62208 13.0041C3.58897 13.0067 3.56351 13.0092 3.53805 13.0092C3.30888 13.0092 3.07972 13.0067 2.85056 13.0118C2.77672 13.0144 2.75125 12.9887 2.7538 12.9141C2.75635 12.4692 2.75635 12.0269 2.75635 11.582C2.75635 10.6871 2.75635 9.79219 2.75889 8.89729C2.75889 8.80986 2.73598 8.78157 2.64686 8.78414C2.26237 8.78928 1.87535 8.78414 1.49086 8.78928C1.40938 8.78928 1.37883 8.77128 1.38137 8.68128C1.38646 8.45498 1.38391 8.23125 1.38391 8.00495C1.38391 7.9741 1.38647 7.94324 1.38901 7.90466C2.59594 7.90466 3.79522 7.90466 5.00724 7.90466C5.00724 8.00238 5.00724 8.09496 5.00724 8.18754C5.00724 8.35469 5.00214 8.52184 5.00978 8.68899C5.01232 8.76871 4.98432 8.78671 4.91048 8.78671C4.5209 8.78414 4.13387 8.78928 3.7443 8.78414C3.65518 8.78414 3.62462 8.80728 3.62717 8.90243C3.63226 9.53504 3.63481 10.1702 3.63481 10.8028C3.63481 11.5074 3.63226 12.212 3.62972 12.9166C3.62717 12.9398 3.62462 12.9655 3.62208 13.0041Z" fill="white"/>
<path d="M8.98962 11.1349C8.99726 10.8392 9.00999 10.5486 9.16276 10.2914C9.28244 10.0883 9.43776 9.934 9.69493 9.94943C9.90117 9.96229 10.031 10.0909 10.1303 10.2554C10.2602 10.4715 10.2857 10.7158 10.2984 10.9601C10.3111 11.2352 10.2984 11.5052 10.2118 11.7701C10.1634 11.9192 10.082 12.0478 9.96483 12.1533C9.76623 12.3333 9.48614 12.3307 9.29008 12.1455C9.09656 11.9604 9.03545 11.7212 9.00999 11.4667C8.9998 11.3561 8.99726 11.2429 8.98962 11.1349Z" fill="#333333" fill-opacity="0.75"/>
<path d="M12.3684 10.6152C12.3862 10.2474 12.6969 9.94398 13.0457 9.94655C13.3844 9.94912 13.6568 10.2371 13.667 10.6152C13.2367 10.6152 12.8064 10.6152 12.3684 10.6152Z" fill="#333333" fill-opacity="0.75"/>
</svg>
