<svg width="15" height="15" viewBox="0 0 15 15" fill="none" xmlns="http://www.w3.org/2000/svg">
<path d="M0 5.14111C0 2.37969 2.23858 0.141113 5 0.141113H9.71792C12.4793 0.141113 14.7179 2.37969 14.7179 5.14111V9.85903C14.7179 12.6205 12.4793 14.859 9.71792 14.859H5C2.23857 14.859 0 12.6205 0 9.85903V5.14111Z" fill="white"/>
<path d="M1.96537 7.50123C1.96537 6.77796 1.96537 6.0547 1.96537 5.33144C1.96782 3.70593 3.09585 2.38445 4.70208 2.14172C4.99144 2.09759 5.28817 2.1074 5.58244 2.1074C6.92627 2.10495 8.2701 2.10005 9.61394 2.1074C11.0853 2.11721 12.3752 3.17391 12.6768 4.61308C12.7209 4.82638 12.7504 5.04949 12.7504 5.26769C12.7553 6.77796 12.7602 8.29069 12.7504 9.80096C12.7406 11.272 11.5806 12.618 10.1265 12.8362C9.71693 12.8975 9.29515 12.8902 8.88071 12.8926C7.65459 12.9 6.42846 12.8951 5.20479 12.8951C4.25086 12.8951 3.44162 12.5494 2.79668 11.8482C2.26699 11.2671 1.98253 10.5782 1.97027 9.79115C1.95556 9.02866 1.96782 8.26372 1.96537 7.50123ZM2.45582 7.48652C2.45582 7.90822 2.45336 8.32746 2.45582 8.74916C2.45827 9.17331 2.4411 9.59992 2.48279 10.0216C2.60786 11.3456 3.77267 12.3949 5.10425 12.3998C6.59276 12.4047 8.07883 12.4047 9.56735 12.4023C11.0681 12.3974 12.2599 11.2083 12.2648 9.70534C12.2697 8.22694 12.2673 6.74609 12.2624 5.26769C12.2624 5.08626 12.2403 4.89993 12.2011 4.72095C11.9313 3.46566 10.8425 2.5953 9.54282 2.5953C8.16956 2.5953 6.7963 2.59284 5.42304 2.59775C5.18762 2.59775 4.9473 2.59775 4.71434 2.63698C3.37296 2.86744 2.45827 3.96582 2.45582 5.33144C2.45582 6.0498 2.45582 6.76816 2.45582 7.48652Z" fill="url(#paint0_linear)"/>
<path d="M4.66214 7.49134C4.67195 5.98107 5.88582 4.79688 7.41848 4.80423C8.8604 4.81159 10.0694 6.05217 10.0596 7.51095C10.0473 9.01387 8.83097 10.2103 7.32774 10.1981C5.85639 10.1858 4.65479 8.96239 4.66214 7.49134ZM9.56665 7.50115C9.56174 6.26547 8.57839 5.28968 7.34 5.29213C6.13349 5.29703 5.14524 6.29489 5.15259 7.50115C5.15995 8.74173 6.1433 9.70772 7.3964 9.70281C8.5833 9.70036 9.57155 8.6976 9.56665 7.50115Z" fill="url(#paint1_linear)"/>
<path d="M10.7934 4.5614C10.7934 4.83109 10.5678 5.05175 10.3005 5.0493C10.0308 5.04685 9.81007 4.82374 9.81252 4.5565C9.81497 4.28681 10.0357 4.0686 10.3054 4.0686C10.5752 4.0686 10.7959 4.29171 10.7934 4.5614Z" fill="url(#paint2_linear)"/>
<defs>
<linearGradient id="paint0_linear" x1="7.35946" y1="2.10352" x2="7.35946" y2="12.8967" gradientUnits="userSpaceOnUse">
<stop stop-color="#C2276C"/>
<stop offset="0.515625" stop-color="#E12F58"/>
<stop offset="1" stop-color="#EA564A"/>
</linearGradient>
<linearGradient id="paint1_linear" x1="7.36086" y1="4.8042" x2="7.36086" y2="10.1982" gradientUnits="userSpaceOnUse">
<stop stop-color="#C2276C"/>
<stop offset="0.515625" stop-color="#E12F58"/>
<stop offset="1" stop-color="#EA564A"/>
</linearGradient>
<linearGradient id="paint2_linear" x1="10.303" y1="4.0686" x2="10.303" y2="5.04932" gradientUnits="userSpaceOnUse">
<stop stop-color="#C2276C"/>
<stop offset="0.515625" stop-color="#E12F58"/>
<stop offset="1" stop-color="#EA564A"/>
</linearGradient>
</defs>
</svg>
